<svg width="612" height="521" viewBox="0 0 612 521" fill="none" xmlns="http://www.w3.org/2000/svg">
<path fill-rule="evenodd" clip-rule="evenodd" d="M2.1177 4.73095C0.265446 8.87412 0.0252526 9.9821 0.180292 13.6609L0.357648 17.8607L4.17491 9.55155C6.2744 4.9815 8.08026 0.962502 8.18773 0.62085C8.29578 0.279199 7.44953 0 6.30787 0C4.36577 0 4.09621 0.30418 2.1177 4.73095ZM86.3928 0.673751C86.3928 1.04479 85.2036 3.8647 83.7501 6.9403C82.2966 10.0159 81.1074 12.6889 81.1074 12.8792C81.1074 13.0695 82.007 13.2252 83.107 13.2252C84.9822 13.2252 85.2746 12.8667 87.8052 7.46637C89.2892 4.29893 90.5037 1.32326 90.5037 0.853761C90.5037 0.368102 89.6181 0 88.4482 0C87.3177 0 86.3928 0.303445 86.3928 0.673751ZM104.011 0.34459C104.011 0.534152 105.342 3.50983 106.97 6.9572C109.787 12.924 110.028 13.2252 111.983 13.2252C114.342 13.2252 114.435 13.6903 110.323 4.95946C108.171 0.388674 107.832 0 105.999 0C104.906 0 104.011 0.155029 104.011 0.34459ZM185.272 4.22472C186.326 6.54795 188.99 12.3347 191.191 17.0826L195.193 25.7157L216.698 25.6753L238.202 25.6341L239.568 23.4711L240.934 21.3073H219.197H197.459L192.578 10.6669L187.697 0.0264504L185.526 0.0132252L183.356 0L185.272 4.22472ZM262.868 6.41717C261.253 9.94169 259.047 14.7557 257.967 17.1149L256.002 21.4043L258.225 21.1721C260.419 20.9429 260.507 20.8099 265.297 10.47L270.148 0L267.976 0.00514314C265.863 0.00955155 265.724 0.184419 262.868 6.41717ZM354.21 2.33572C353.586 3.62077 353.156 4.86027 353.256 5.09097C353.445 5.52594 363.521 27.302 370.958 43.3493L375.215 52.5335L362.416 52.7311L349.616 52.9288L343.441 66.3237C332.83 89.34 325.148 105.963 322.563 111.496L320.075 116.823L307.328 116.799L294.58 116.776L275.035 74.2405L255.49 31.7038L256.681 29.2608C258.269 26.0015 258.206 25.7157 255.902 25.7157C254.174 25.7157 253.76 26.111 252.585 28.8839L251.241 32.0528L255.339 40.8233C257.593 45.6476 263.547 58.5216 268.57 69.4324C273.592 80.3432 280.983 96.3788 284.994 105.067L292.285 120.864L305.192 121.061L318.099 121.258L319.146 119.041C320.005 117.22 320.582 116.818 322.362 116.798C324.519 116.774 324.554 116.724 328.816 107.431C331.173 102.292 337.274 89.0527 342.373 78.0104L351.644 57.9345L364.368 58.0146C375.224 58.0837 377.092 57.936 377.092 57.011C377.092 56.4144 376.827 55.7222 376.504 55.4724C375.283 54.5276 375.961 52.9883 377.697 52.7635L379.477 52.5335L368.51 28.7751L357.543 5.01603L358.499 2.50838L359.455 0H357.4C355.721 0 355.138 0.42688 354.21 2.33572ZM398.686 2.38789C399.78 4.6876 402.925 11.4479 409.33 25.2638L412.356 31.7912L407.644 41.9386C405.052 47.5197 402.932 52.269 402.932 52.4931C402.932 52.7172 403.817 52.9009 404.9 52.9009C406.811 52.9009 407.007 52.6011 411.653 42.6249C414.285 36.9733 416.439 32.1277 416.439 31.8566C416.439 31.5862 413.201 24.3219 409.245 15.713L402.051 0.0602482L399.8 0.0301241L397.55 0L398.686 2.38789ZM482.36 18.267C477.758 28.2902 473.991 36.7117 473.991 36.9814C473.991 37.251 474.879 37.4714 475.963 37.4714C478.089 37.4714 478.037 37.5721 491.995 6.79629L495.077 0L492.903 0.022042L490.729 0.0440841L482.36 18.267ZM559.795 11.9446C556.761 18.5087 552.854 26.9368 551.114 30.6752L547.949 37.4714H525.719H503.49L502.542 39.2826C502.02 40.2781 501.593 41.27 501.593 41.4868C501.593 41.7028 512.535 41.8799 525.907 41.8799H550.221L554.587 32.512C556.988 27.3593 559.628 21.6563 560.453 19.8378C561.279 18.0194 563.692 12.8123 565.816 8.26576L569.677 0L567.494 0.00514314L565.312 0.011021L559.795 11.9446ZM602.831 6.42892C601.205 9.9652 596.497 20.1934 592.369 29.1587L584.865 45.4587L590.357 57.4018C593.378 63.9704 595.938 69.6124 596.046 69.9394C596.154 70.267 590.701 70.5345 583.93 70.5345H571.619L566.754 81.0044C564.079 86.7633 560.878 93.6235 559.64 96.2502L557.389 101.026L559.223 101.263C560.232 101.393 561.326 101.163 561.656 100.751C561.984 100.34 564.826 94.4471 567.969 87.6567L573.685 75.3103L586.056 75.1119L598.428 74.9142L600.875 80.255C602.222 83.1932 604.394 87.8955 605.703 90.7044L608.083 95.813L609.005 93.3744C609.91 90.9843 609.883 90.833 607.646 85.695C603.29 75.6901 602.8 74.9429 600.608 74.9429C599.152 74.9429 598.377 74.4638 597.679 73.1318C596.4 70.6888 596.451 70.5345 598.556 70.5345C599.774 70.5345 600.286 70.2296 600.098 69.6161C599.942 69.1113 597.405 63.4289 594.46 56.9889C589.615 46.3963 589.179 45.1362 589.889 43.7637C591.356 40.9247 609.102 2.19832 609.44 1.09696C609.698 0.257157 609.309 0 607.782 0C605.891 0 605.633 0.334304 602.831 6.42892ZM114.582 13.5581C114.582 13.741 114.888 14.7329 115.264 15.7623L115.945 17.6336L135.671 17.6424L155.397 17.652L157.83 22.9693C164.171 36.8315 172.128 54.0691 175.739 61.7676C179.436 69.6499 179.855 70.267 181.509 70.267C182.49 70.267 183.292 69.9511 183.292 69.5639C183.292 68.9284 162.127 22.5887 158.817 15.9805L157.438 13.2252H136.01C124.224 13.2252 114.582 13.3751 114.582 13.5581ZM239.713 26.7539C239.311 27.36 239.134 28.1631 239.32 28.5393C239.506 28.9155 239.256 29.1778 238.766 29.1227C238.182 29.0565 234.656 36.0027 228.559 49.2272L219.245 69.4324L201.855 69.6271C191.531 69.7424 184.467 70.1017 184.467 70.511C184.467 70.8901 184.775 72.0473 185.152 73.0818L185.838 74.9642L203.505 74.7695L221.171 74.5755L227.087 61.7177C230.34 54.6459 235.044 44.4397 237.539 39.0379C240.035 33.6361 241.917 29.0169 241.722 28.7729C241.528 28.529 241.093 28.8163 240.757 29.4107C240.247 30.3151 240.198 30.2894 240.463 29.2534C240.636 28.5723 240.463 27.8494 240.078 27.6466C239.692 27.4438 239.905 27.3402 240.551 27.4151C241.886 27.5709 242.517 26.1977 241.263 25.8678C240.812 25.7495 240.114 26.1485 239.713 26.7539ZM0.0640125 36.002V38.2062L16.6544 38.2172C25.7794 38.2238 33.5308 38.4714 33.8802 38.7683C34.2302 39.0651 35.5123 41.4574 36.7303 44.0841C39.4769 50.0097 39.2573 49.7621 40.2797 48.0715C41.56 45.9532 41.3961 45.0172 38.7193 39.1635L36.2651 33.7978H18.1649H0.0640125V36.002ZM42.6053 52.3175L41.6299 54.8766L46.6146 65.6536L51.5994 76.43L52.5525 74.6101C53.0769 73.6093 53.5056 72.436 53.5056 72.0032C53.5056 71.5697 51.2723 66.3876 48.5432 60.487L43.5808 49.7584L42.6053 52.3175ZM479.932 78.9685L475.031 89.6376H458.053H441.074L441.985 91.8418L442.896 94.046H441.12C440.142 94.046 439.342 94.3707 439.342 94.7675C439.342 95.165 441.538 100.207 444.221 105.972C453.041 124.922 456.961 133.518 456.961 133.905C456.961 134.115 454.716 139.087 451.972 144.955C445.63 158.516 445.788 157.968 448.235 157.967C450.162 157.966 450.332 157.697 455.639 146.297C458.627 139.879 461.071 134.291 461.071 133.88C461.071 133.469 457.226 124.817 452.527 114.655C447.827 104.492 443.835 95.6977 443.655 95.1113C443.373 94.1959 445.713 94.046 460.302 94.046H477.276L482.094 83.565C484.743 77.8003 486.906 72.7578 486.898 72.3603C486.891 71.9621 486.423 70.8857 485.858 69.968C484.835 68.3031 484.819 68.3266 479.932 78.9685ZM0.0640125 83.025V85.2292H11.2222C18.7703 85.2292 22.3803 85.4841 22.3803 86.0168C22.3803 86.4503 20.9021 90.0042 19.0957 93.9152C6.18807 121.859 5.75055 122.893 6.33665 124.084C6.65789 124.737 11.6221 135.522 17.3674 148.049C23.1132 160.576 29.141 173.597 30.7624 176.984L33.7105 183.142L34.7887 181.392C35.3813 180.43 35.7301 179.173 35.5639 178.6C35.3971 178.027 29.5849 165.241 22.6475 150.187L10.0335 122.816L15.2397 111.554C18.1038 105.359 20.6202 99.3912 20.8334 98.2913C21.046 97.1906 21.7137 95.7028 22.3175 94.985C23.4374 93.6514 27.0785 86.5502 27.0785 85.6987C27.0785 85.4408 26.2575 85.2292 25.2538 85.2292C23.3675 85.2292 23.3851 85.3181 24.555 81.7392C24.7893 81.0213 22.1442 80.8208 12.4595 80.8208H0.0640125V83.025ZM391.967 84.95C390.992 86.8103 391.011 86.9889 392.501 90.2768L394.044 93.6786L416.418 93.8711L438.793 94.0636L437.878 91.8506L436.963 89.6376H416.773H396.583L395.035 86.3313C394.182 84.5128 393.371 83.025 393.231 83.025C393.09 83.025 392.522 83.8912 391.967 84.95ZM191.514 86.2409C191.514 86.8074 191.977 87.9705 192.542 88.825C193.549 90.3481 193.994 90.3833 214.323 90.5597L235.076 90.7397L240.224 101.761C250.388 123.519 272.504 171.71 273.19 173.595C273.834 175.362 273.525 176.307 269.407 185.173C266.941 190.482 264.923 194.965 264.923 195.133C264.923 195.301 265.827 195.439 266.933 195.439C268.893 195.439 269.058 195.194 273.477 185.704C275.97 180.35 278.016 175.615 278.024 175.184C278.036 174.539 248.886 110.787 239.581 91.107L236.975 85.5965L214.245 85.404C195.072 85.2417 191.514 85.3732 191.514 86.2409ZM488.178 114.067C484.946 121.039 479.105 133.685 475.197 142.171L468.091 157.6L470.191 157.968C472.185 158.317 472.246 158.409 471.398 159.805C470.907 160.613 470.497 161.523 470.487 161.825C470.476 162.128 475.202 162.376 480.989 162.376H491.509L492.915 165.499C495.629 171.527 512.899 209.059 514.096 211.53L515.305 214.028L516.561 212.058L517.818 210.086L518.614 211.947C519.051 212.97 519.563 213.806 519.751 213.805C519.939 213.803 522.055 209.53 524.455 204.31L528.818 194.818L539.724 194.416C545.722 194.195 551.555 193.922 552.686 193.808C553.816 193.695 554.935 193.933 555.173 194.337C555.41 194.741 555.608 194.364 555.613 193.497C555.618 192.631 555.212 191.726 554.711 191.485C554.209 191.245 553.949 191.352 554.133 191.723C554.317 192.095 554.198 192.606 553.87 192.86C553.54 193.116 553.273 192.647 553.273 191.809C553.273 190.326 553.012 190.296 539.913 190.307L526.552 190.317L522.156 199.885C517.096 210.895 518.039 210.936 512.905 199.48C509.326 191.495 508.135 189.412 507.454 189.938C507.21 190.126 506.651 189.705 506.211 189.002C505.487 187.846 505.508 187.82 506.438 188.733C507.075 189.359 507.466 189.438 507.466 188.943C507.466 188.503 506.937 187.79 506.291 187.357C505.645 186.924 505.121 186.169 505.126 185.678C505.131 185.118 505.346 185.196 505.704 185.888C506.43 187.295 506.466 186.279 505.749 184.592C505.451 183.89 502.63 177.613 499.48 170.642L493.754 157.968H483.285C477.527 157.968 472.817 157.677 472.817 157.321C472.817 156.966 474.711 152.585 477.026 147.586C479.342 142.588 484.59 131.224 488.688 122.333L496.14 106.169L499.16 105.947C500.821 105.825 502.18 105.565 502.18 105.37C502.18 105.175 501.753 104.2 501.232 103.204C500.421 101.656 499.831 101.393 497.168 101.393H494.053L488.178 114.067ZM106.084 102.863C105.994 103.065 99.8982 116.29 92.5374 132.252C72.7106 175.246 74.5751 170.932 76.1461 170.178C76.6688 169.927 76.9043 170.051 76.6987 170.466C76.5014 170.866 76.8567 171.193 77.488 171.193C78.9339 171.193 79.3315 170.405 94.3621 137.763C101.06 123.215 106.963 110.405 107.478 109.296L108.415 107.281L126.347 107.276L144.279 107.271L145.311 105.086L146.343 102.901L126.295 102.698C115.269 102.587 106.174 102.661 106.084 102.863ZM502.768 106.172C502.768 106.376 505.179 111.831 508.126 118.295L513.486 130.048L528.828 130.044L544.17 130.038L545.17 127.839L546.171 125.64H530.965H515.759L511.251 115.721C506.856 106.049 506.694 105.802 504.756 105.802C503.662 105.802 502.768 105.969 502.768 106.172ZM579.532 148.6C584.232 158.803 588.884 168.983 589.869 171.221L591.66 175.29L588.323 182.385C586.487 186.287 584.986 189.664 584.986 189.888C584.986 190.112 585.807 190.296 586.81 190.296C588.199 190.296 588.55 190.559 588.278 191.398C588.082 192.004 587.762 192.996 587.565 193.602C587.257 194.556 588.555 194.705 597.227 194.705H607.244L609.475 199.664L611.706 204.623L611.883 200.381C612.021 197.069 611.772 195.499 610.747 193.217L609.435 190.296H599.559C592.775 190.296 589.684 190.043 589.684 189.489C589.684 189.045 591.005 185.873 592.62 182.44C594.235 179.007 595.556 175.725 595.556 175.147C595.556 174.569 591.545 165.425 586.642 154.828C581.739 144.23 577.18 134.321 576.511 132.809C575.451 130.412 575.02 130.059 573.141 130.054L570.986 130.048L579.532 148.6ZM194.812 151.697C194.29 152.692 193.863 153.7 193.863 153.934C193.863 154.169 196.129 159.276 198.899 165.284L203.934 176.208L193.666 198.497C188.019 210.757 180.878 226.243 177.798 232.911L172.198 245.034L161 245.234L149.801 245.433L150.687 247.578L151.573 249.721L149.59 249.949L147.605 250.177L150.893 257.341L154.18 264.504L160.955 264.453C165.694 264.417 167.377 264.191 166.555 263.703C165.604 263.137 165.66 263.106 166.849 263.539C167.656 263.833 177.85 264.182 189.502 264.315L210.687 264.556L211.378 262.659C211.758 261.615 212.069 260.598 212.069 260.399C212.069 259.712 168.344 260.222 167.299 260.922C166.618 261.379 166.262 261.356 166.262 260.856C166.262 260.393 164.335 260.096 161.32 260.096H156.379L154.273 255.385C153.115 252.793 152.167 250.479 152.167 250.242C152.167 250.004 157.161 249.81 163.265 249.81H174.364L179.32 238.972C182.046 233.011 189.327 217.19 195.502 203.815C201.677 190.438 207.031 178.663 207.401 177.648C208.011 175.972 207.524 174.615 202.082 162.844C198.787 155.717 196.016 149.886 195.926 149.886C195.835 149.886 195.333 150.701 194.812 151.697ZM302.868 157.784C302.088 159.3 298.35 167.317 294.562 175.601C290.774 183.886 287.147 191.76 286.504 193.101L285.332 195.538L287.593 195.306L289.853 195.072L297.875 177.806L305.897 160.539L314.92 160.172C319.883 159.97 323.902 159.639 323.851 159.437C323.8 159.235 323.428 158.16 323.023 157.049L322.287 155.029H313.287H304.287L302.868 157.784ZM324.825 160.368C324.825 160.958 329.294 170.766 347.248 209.583L349.542 214.542H367.101C384.58 214.542 384.664 214.535 385.574 212.909C386.076 212.011 386.488 211.024 386.488 210.716C386.488 210.408 378.64 210.069 369.048 209.961L351.609 209.767L340.285 185.153C329.217 161.098 328.914 160.53 326.892 160.104C325.733 159.86 324.825 159.975 324.825 160.368ZM443.004 164.489C442.444 165.65 437.493 176.386 432.002 188.345L422.018 210.091L417.11 210.112C413.42 210.129 412.277 210.362 412.502 211.052C413.672 214.631 413.69 214.542 411.804 214.542C410.8 214.542 409.979 214.662 409.979 214.809C409.979 214.955 412.778 221.123 416.199 228.516C419.621 235.908 422.686 242.687 423.011 243.58C423.516 244.966 422.645 247.275 417.024 259.446C396.405 304.084 398.036 300.18 399.136 302.28C400.323 304.547 400.663 304.348 402.479 300.316C403.251 298.602 407.014 290.422 410.843 282.138C425.448 250.541 427.592 245.736 427.568 244.667C427.554 244.06 424.543 237.117 420.876 229.237L414.21 214.91L419.288 214.542L424.367 214.175L435.399 190.296C441.466 177.163 446.824 165.508 447.306 164.397L448.181 162.376H446.103C444.44 162.376 443.819 162.799 443.004 164.489ZM463.179 168.22C461.696 171.434 460.485 174.492 460.487 175.016C460.488 175.54 463.079 181.59 466.245 188.459C469.411 195.329 476.989 211.778 483.085 225.012L494.169 249.075H496.667C498.753 249.075 499.364 248.724 500.379 246.941C501.046 245.767 501.593 244.61 501.593 244.37C501.593 244.129 500.338 243.927 498.804 243.919L496.014 243.908L480.451 210.037C471.892 191.409 464.796 175.856 464.682 175.475C464.568 175.095 465.691 172.165 467.178 168.965C468.664 165.763 469.881 162.972 469.881 162.761C469.881 162.549 468.978 162.376 467.877 162.376C465.99 162.376 465.715 162.719 463.179 168.22ZM73.8798 173.49C72.9731 174.715 72.3206 175.939 72.4304 176.211C72.5403 176.482 72.9936 177.613 73.4394 178.724C74.3925 181.104 75.2611 181.268 76.6594 179.335C77.6301 177.993 77.6225 177.854 76.4938 176.442C75.8413 175.626 75.5066 174.855 75.7497 174.729C75.9928 174.603 76.0421 173.771 75.8601 172.882C75.5353 171.297 75.4931 171.311 73.8798 173.49ZM76.7028 172.663C76.5032 173.067 76.62 173.397 76.9618 173.397C77.3036 173.397 77.5837 173.067 77.5837 172.663C77.5837 172.258 77.4675 171.928 77.3247 171.928C77.182 171.928 76.9025 172.258 76.7028 172.663ZM76.3986 180.393C75.7444 181.379 75.7403 181.697 76.3751 182.188C76.7997 182.516 76.9894 183.103 76.7968 183.493C76.3129 184.473 77.7893 186.833 79.0278 187.061C79.8958 187.221 79.9892 186.847 79.655 184.548C79.4395 183.062 78.7976 181.25 78.228 180.521C77.2754 179.3 77.1304 179.29 76.3986 180.393ZM0.0640125 185.124V187.298L4.81738 187.512L9.57134 187.725L14.3781 198.011C17.0215 203.668 23.2395 217.13 28.1954 227.926L37.2059 247.554L32.758 257.131L28.3094 266.709L30.4835 266.708C32.6458 266.707 32.6793 266.659 36.7684 257.772C39.0294 252.857 40.9615 248.416 41.062 247.902C41.1624 247.387 36.0261 235.621 29.6484 221.754C23.2706 207.887 17.1101 194.478 15.9585 191.956C13.9812 187.625 13.7433 187.37 11.6779 187.364C9.84383 187.358 9.34348 187.001 8.57944 185.153C7.70969 183.048 7.4971 182.949 3.866 182.949H0.0640125V185.124ZM80.2264 187.357C80.0203 187.775 79.6057 187.926 79.305 187.693C77.4469 186.257 79.7919 192.412 87.4094 208.967C95.9389 227.504 96.0869 227.768 97.9802 227.768C99.0361 227.768 99.9 227.549 99.9 227.282C99.9 225.907 83.0495 190.316 82.3941 190.307C81.9712 190.301 81.7868 189.969 81.9841 189.57C82.1897 189.154 81.9542 189.03 81.4315 189.281C80.93 189.522 80.5201 189.38 80.5201 188.966C80.5201 188.553 80.8372 188.082 81.2254 187.92C81.7404 187.706 81.7516 187.488 81.2659 187.113C80.9001 186.83 80.4326 186.94 80.2264 187.357ZM396.62 189.01C395.916 190.121 387.075 209.407 387.075 209.833C387.075 209.999 387.98 210.134 389.084 210.134C391.038 210.134 391.208 209.885 395.202 201.163C399.164 192.511 399.281 192.118 398.463 190.142C397.498 187.805 397.416 187.755 396.62 189.01ZM563.162 208.291C566.605 215.764 569.614 221.881 569.848 221.884C570.082 221.888 570.644 220.98 571.095 219.869C571.887 217.926 571.715 217.408 566.601 206.277L561.284 194.705H559.093H556.901L563.162 208.291ZM228.529 225.38C220.958 241.847 214.253 256.417 213.628 257.759L212.492 260.197L214.745 259.963L216.998 259.729L224.81 242.83C229.108 233.535 235.32 220.062 238.616 212.889L244.609 199.848H253.558C262.141 199.848 262.545 199.781 263.421 198.214C263.924 197.317 264.336 196.325 264.336 196.01C264.336 195.696 259.376 195.439 253.314 195.439H242.293L228.529 225.38ZM273.187 222.031C267.565 234.231 262.974 244.564 262.984 244.991C262.994 245.419 272.182 265.689 283.4 290.036L303.798 334.304H321.585H339.371L340.32 332.493C340.841 331.497 341.268 330.505 341.268 330.289C341.268 330.073 333.351 329.896 323.675 329.896H306.081L304.659 326.773C303.877 325.056 300.338 317.368 296.795 309.69C293.253 302.013 285.257 284.682 279.026 271.179C272.796 257.675 267.589 246.101 267.455 245.46C267.32 244.819 271.598 234.775 276.96 223.14C282.322 211.504 286.857 201.504 287.037 200.916C287.284 200.111 286.876 199.848 285.387 199.848C283.41 199.848 283.401 199.865 273.187 222.031ZM593.07 238.972C592.293 240.689 589.133 247.55 586.047 254.218C582.961 260.886 575.905 276.174 570.367 288.192L560.298 310.044L561.785 312.989C562.979 315.355 563.617 315.936 565.026 315.936C566.975 315.936 567.271 314.823 565.918 312.586C565.444 311.802 565.047 310.685 565.037 310.105C565.027 309.524 567.631 303.408 570.824 296.512C580.904 274.744 593.523 247.358 594.969 244.115L596.36 240.993H604.18H612V238.421V235.85H603.241H594.482L593.07 238.972ZM527.954 253.3C526.902 255.624 522.786 264.562 518.808 273.165C514.831 281.768 511.577 288.958 511.577 289.146C511.577 289.332 512.48 289.485 513.584 289.485C515.513 289.485 515.728 289.189 519.064 281.954C520.975 277.813 525.093 268.888 528.215 262.125C531.338 255.36 533.893 249.657 533.893 249.45C533.893 249.244 532.987 249.075 531.88 249.075C530.044 249.075 529.701 249.444 527.954 253.3ZM171.547 263.035C171.547 263.439 171.084 263.764 170.519 263.759C169.641 263.749 169.62 263.643 170.372 263.035C171.481 262.138 171.547 262.138 171.547 263.035ZM21.9698 280.485C19.7399 285.233 13.8848 297.911 8.95764 308.66L0 328.201L0.179118 332.422L0.357648 336.643L9.1115 317.656C13.9265 307.214 20.5991 292.792 23.9401 285.607C27.2811 278.422 30.0148 272.389 30.0148 272.198C30.0148 272.007 29.1169 271.852 28.0193 271.852C26.0936 271.852 25.8828 272.153 21.9698 280.485ZM104.633 278.648C104.174 279.558 101.863 284.506 99.4977 289.646L95.1966 298.991L96.313 301.287L97.4294 303.584L99.4325 299.29C100.534 296.928 102.741 292.105 104.338 288.572L107.241 282.147L140.29 282.143L173.338 282.138L174.808 285.261C180.093 296.487 188.078 313.897 188.355 314.798C188.625 315.679 187.814 315.913 183.894 316.089L179.103 316.303L174.692 325.855C172.266 331.108 163.027 351.152 154.161 370.395L138.041 405.384L142.522 415.03C146.878 424.41 147.057 424.676 148.997 424.676C150.095 424.676 150.993 424.54 150.993 424.374C150.993 424.208 149.051 419.848 146.678 414.685L142.364 405.296L150.683 387.25C155.258 377.325 162.134 362.426 165.962 354.142C169.79 345.858 174.828 334.947 177.157 329.896L181.391 320.711H186.279H191.168L198.632 336.857C204.982 350.59 206.003 353.224 205.469 354.49C205.124 355.309 198.891 368.873 191.618 384.633C184.345 400.393 177.235 415.85 175.816 418.982L173.239 424.676H162.409C156.453 424.676 151.58 424.934 151.58 425.247C151.58 425.562 151.992 426.554 152.494 427.451C153.383 429.041 153.706 429.085 164.438 429.085H175.468L192.887 391.261C202.468 370.458 210.307 353.315 210.307 353.167C210.307 353.019 207.004 345.734 202.966 336.978C198.929 328.221 195.625 320.89 195.625 320.684C195.625 320.479 200.553 320.401 206.577 320.512L217.529 320.711L229.921 347.695L242.313 374.679L263.617 374.697L284.92 374.714L284.009 372.51L283.099 370.306H264.144C251.097 370.306 244.989 370.053 244.542 369.495C244.185 369.048 238.913 357.815 232.826 344.532L221.759 320.381L219.59 320.362C217.81 320.347 217.234 319.948 216.38 318.14L215.339 315.936H204.24H193.141L194.089 317.747C195.383 320.216 195.329 320.344 192.998 320.344C191.325 320.344 190.793 319.947 190.046 318.14L189.135 315.936H190.955C192.168 315.936 192.712 315.612 192.585 314.964C192.48 314.43 188.563 305.67 183.88 295.496L175.364 276.998L140.416 276.997L105.468 276.995L104.633 278.648ZM448.953 299.964C446.325 305.718 441.906 315.302 439.135 321.263L434.096 332.1H436.293C438.439 332.1 438.558 331.95 441.437 325.671C443.058 322.135 447.016 313.54 450.232 306.571L456.08 293.9L473.86 293.897L491.639 293.894L490.729 291.689L489.818 289.485L471.774 289.494L453.731 289.502L448.953 299.964ZM514.84 291.119C514.338 292.016 513.926 293.008 513.926 293.323C513.926 293.637 516.106 293.901 518.771 293.909L523.616 293.925L529.289 306.216C532.41 312.976 537.144 323.217 539.81 328.973L544.658 339.438L545.754 337.183L546.849 334.929L538.81 317.534C534.389 307.967 529.69 297.742 528.368 294.812L525.965 289.486L520.86 289.485C516.25 289.485 515.665 289.644 514.84 291.119ZM96.1532 306.214C95.331 308.203 95.5648 308.798 106.425 332.376L117.538 356.504L115.88 360.283C114.967 362.361 110.304 372.559 105.517 382.946L96.8133 401.831L97.9444 404.065L99.0749 406.299L110.352 381.82C116.554 368.356 121.629 357.064 121.629 356.727C121.629 355.736 97.8863 304.223 97.4194 304.201C97.1851 304.189 96.6154 305.095 96.1532 306.214ZM399.156 307.509C398.145 309.439 398.157 309.476 403.295 320.589C406.128 326.718 408.99 332.97 409.654 334.482L410.86 337.231L421.25 337.237C431.325 337.243 431.669 337.193 432.555 335.61C434.427 332.267 434.118 332.146 423.129 331.933L412.788 331.733L407.006 319.312C403.825 312.48 400.985 306.594 400.696 306.232C400.386 305.844 399.754 306.369 399.156 307.509ZM542.956 343.305C537.911 353.96 533.306 364.125 533.306 364.604C533.306 364.912 534.177 365.163 535.242 365.163C537.117 365.163 537.331 364.83 542.044 354.576C546.866 344.085 546.901 343.972 545.913 342.086C545.365 341.039 544.808 340.182 544.675 340.182C544.543 340.182 543.77 341.587 542.956 343.305ZM522.735 386.958C518.374 396.498 514.722 404.578 514.617 404.916C514.512 405.253 517.26 411.683 520.722 419.206L527.016 432.884L528.158 430.626L529.301 428.368L523.962 416.875L518.623 405.383L521.674 398.681C523.352 394.996 526.748 387.671 529.22 382.405C535.887 368.202 535.496 369.568 532.886 369.593L530.663 369.613L522.735 386.958ZM589.488 373.061C590.377 374.981 591.793 378.039 592.636 379.858L594.169 383.164L603.085 383.367L612 383.569V381.346V379.123L604.219 379.122L596.437 379.121L594.382 374.347C592.409 369.764 592.238 369.574 590.099 369.572L587.873 369.571L589.488 373.061ZM0.0640125 379.123V381.327L23.7017 381.339L47.3393 381.351L53.3606 394.38C56.6722 401.547 62.8826 415.015 67.1614 424.309C74.6098 440.486 75.0232 441.217 76.8502 441.438C77.8997 441.565 78.7583 441.335 78.7583 440.928C78.7583 440.52 73.292 428.349 66.6112 413.879C59.9304 399.41 53.3899 385.182 52.0762 382.262L49.6884 376.95L24.8762 376.935L0.0640125 376.919V379.123ZM427.433 377.37C427.258 377.587 427.555 378.73 428.09 379.909L429.065 382.052L447.07 382.057L465.075 382.062L470.674 394.001C473.754 400.568 476.553 405.858 476.894 405.757C477.236 405.656 477.515 406.251 477.515 407.079C477.515 409.657 479.202 412.921 480.535 412.921C481.528 412.921 481.709 413.272 481.482 414.757C481.134 417.034 481.5 417.147 482.146 414.962C482.592 413.454 482.65 413.507 482.902 415.658C483.052 416.938 482.991 417.844 482.767 417.671C481.779 416.906 484.001 422.862 487.792 431.134C491.891 440.078 491.91 440.104 494.09 440.105C495.918 440.106 496.425 440.462 497.173 442.273C498.368 445.164 498.343 445.249 496.308 445.249C495.339 445.249 494.546 445.389 494.546 445.559C494.546 445.729 496.659 450.441 499.242 456.029C501.825 461.617 503.939 466.521 503.94 466.927C503.941 467.332 498.533 479.4 491.921 493.744C480.318 518.917 479.952 519.833 481.4 520.063C483.789 520.443 484.201 519.959 487.332 513.098C488.964 509.523 493.661 499.325 497.771 490.435C501.881 481.545 505.996 472.615 506.918 470.59L508.593 466.91L503.665 456.263L498.737 445.616L512.16 445.419L525.584 445.223L527.395 441.539C529.127 438.017 529.167 437.761 528.305 435.675C527.809 434.475 527.289 433.493 527.149 433.493C527.01 433.493 526.196 434.987 525.341 436.813L523.786 440.132L509.9 439.935L496.014 439.738L490.289 427.248C483.975 413.471 483.083 411.881 482.098 412.642C481.654 412.986 481.553 412.748 481.802 411.939C482.24 410.508 481.71 408.36 481.045 408.874C480.793 409.069 480.289 407.827 479.923 406.116C479.559 404.403 476.551 397.216 473.24 390.144L467.219 377.286L447.484 377.13C436.63 377.044 427.606 377.152 427.433 377.37ZM280.329 393.267C280.002 393.772 274.252 406.088 267.552 420.635C260.852 435.183 253.423 451.294 251.044 456.436C248.664 461.578 246.718 466.003 246.718 466.267C246.718 467.545 257.466 490.065 258.067 490.044C258.446 490.032 259.228 489.574 259.804 489.027C260.779 488.102 260.503 487.282 255.824 477.198L250.798 466.363L266.575 432.111L282.352 397.859L288.613 397.65C295.271 397.428 295.718 397.122 293.959 393.981C293.116 392.473 292.582 392.348 286.984 392.348C282.844 392.348 280.735 392.639 280.329 393.267ZM552.277 431.778C541.698 454.795 541.6 455.049 542.465 457.142C542.946 458.305 543.549 459.094 543.806 458.896C544.063 458.698 548.994 448.272 554.765 435.728L565.257 412.921H583.671C593.799 412.921 601.966 412.673 601.819 412.37C601.672 412.066 601.921 411.392 602.372 410.871C602.822 410.35 603.191 410.257 603.191 410.664C603.191 411.072 603.61 411.204 604.121 410.958C604.87 410.599 604.899 410.391 604.268 409.891C603.149 409.003 604.222 409.099 605.579 410.007C606.204 410.426 606.715 411.253 606.715 411.844C606.715 412.63 607.428 412.921 609.357 412.921C611.902 412.921 612 412.839 612 410.716V408.512L587.481 408.52L562.963 408.528L552.277 431.778ZM480.852 411.589C480.665 412.175 480.526 412.001 480.498 411.145C480.473 410.37 480.611 409.937 480.806 410.181C481.001 410.425 481.022 411.059 480.852 411.589ZM605.195 411.348C605.367 411.695 604.854 411.89 604.055 411.78C603.257 411.67 602.604 411.882 602.604 412.251C602.604 412.619 603.396 412.921 604.365 412.921C605.54 412.921 606.127 412.553 606.127 411.819C606.127 411.212 605.847 410.716 605.505 410.716C605.164 410.716 605.024 411.001 605.195 411.348ZM365.386 428.166C364.982 429.278 364.674 430.352 364.704 430.554C364.734 430.756 374.449 431.087 386.293 431.289L407.829 431.656L423.543 465.794C432.186 484.57 439.18 500.109 439.086 500.327C438.028 502.766 431.314 517.287 430.667 518.539C429.831 520.153 429.864 520.192 432.081 520.185L434.351 520.179L438.462 511.236C440.723 506.317 442.794 501.74 443.064 501.064C443.55 499.849 442.668 497.818 425.331 460.311C422.716 454.654 418.126 444.659 415.131 438.101L409.685 426.177L387.904 426.161L366.122 426.146L365.386 428.166ZM357.525 435.881C349.176 453.659 343.47 466.256 343.465 466.924C343.455 468.012 360.141 504.028 360.654 504.028C360.895 504.028 361.417 503.049 361.813 501.853C362.502 499.773 362.211 498.979 355.074 483.465C350.971 474.548 347.742 466.835 347.899 466.326C348.055 465.816 351.517 458.206 355.592 449.414C362.965 433.508 362.997 433.419 362.103 431.257C361.61 430.063 361.095 429.085 360.961 429.085C360.827 429.085 359.28 432.143 357.525 435.881ZM0.0640125 443.779V445.984H17.3885C26.917 445.984 34.713 445.807 34.713 445.591C34.713 445.374 34.286 444.382 33.7645 443.386L32.8161 441.575H16.4401H0.0640125V443.779ZM129.086 445.8C127.237 449.658 109.603 487.858 100.693 507.308L97.0024 515.363L98.0395 517.594C98.8535 519.344 99.5459 519.874 101.258 520.053L103.439 520.281L102.451 517.69L101.463 515.099L111.511 493.215C117.037 481.18 124.155 465.711 127.329 458.842L133.1 446.351L144.948 446.152L156.797 445.954L155.803 443.769L154.81 441.585L142.96 441.58L131.111 441.575L129.086 445.8ZM77.5837 446.447C77.5837 446.702 79.4994 451.072 81.8414 456.159C84.1835 461.245 86.1802 465.639 86.2794 465.923C86.4204 466.328 68.1839 506.594 62.7822 517.804L61.6317 520.192L63.8815 520.163L66.132 520.135L77.5837 495.153C83.8822 481.413 89.4002 469.229 89.8454 468.078C90.6247 466.063 90.4796 465.603 86.0398 455.983C81.596 446.357 81.3517 445.984 79.5035 445.984C78.4476 445.984 77.5837 446.192 77.5837 446.447ZM157.453 446.76C157.453 447.238 159.258 451.474 161.465 456.174C163.672 460.874 168.627 471.571 172.477 479.945L179.475 495.17L199.437 495.374L219.398 495.578L224.013 505.46C228.553 515.181 228.613 515.373 227.689 517.329C226.405 520.049 226.461 520.192 228.815 520.192C230.587 520.192 231.016 519.836 231.835 517.687L232.79 515.182L228.196 505.197L223.601 495.211H221.416C219.544 495.211 219.06 494.845 218.024 492.65L216.817 490.089L199.055 489.895L181.293 489.7L171.258 468.026C161.63 447.233 161.145 446.342 159.337 446.121C158.174 445.979 157.453 446.223 157.453 446.76ZM534.244 470.84L529.131 481.888L530.329 484.827C530.989 486.444 532.058 488.231 532.707 488.8C533.355 489.368 533.711 490.051 533.498 490.318C533.285 490.584 533.434 490.802 533.83 490.802C534.225 490.802 534.414 491.077 534.248 491.412C533.904 492.11 536.502 498.426 542.408 511.252L546.519 520.179L548.77 520.185L551.02 520.192L549.872 517.804C549.241 516.49 545.747 508.969 542.107 501.089C538.467 493.209 535.008 485.75 534.419 484.512L533.347 482.263L537.29 473.678C539.459 468.956 541.396 465.091 541.594 465.09C541.792 465.088 545.062 471.865 548.861 480.149L555.768 495.211H583.884H612V492.639V490.068L584.839 490.065L557.677 490.061L552.711 479.227C549.98 473.269 546.838 466.44 545.728 464.053L543.712 459.713L542.895 461.665C541.874 464.103 541.451 464.109 540.285 461.705L539.358 459.792L534.244 470.84ZM261.546 493.794C260.819 494.143 260.225 494.771 260.225 495.19C260.225 496.478 270.964 519.584 271.735 519.954C272.133 520.145 273.128 520.194 273.947 520.063C275.405 519.83 275.312 519.554 269.551 506.967C266.314 499.895 263.487 493.896 263.267 493.634C263.047 493.373 262.273 493.445 261.546 493.794Z" fill="url(#paint0_linear_115_1035)" fill-opacity="0.5"/>
<defs>
<linearGradient id="paint0_linear_115_1035" x1="640.419" y1="-1.56375e-05" x2="183.291" y2="297.129" gradientUnits="userSpaceOnUse">
<stop stop-color="#884C28" stop-opacity="0.63"/>
<stop offset="1" stop-color="#C69A80" stop-opacity="0"/>
</linearGradient>
</defs>
</svg>
