<svg width="25" height="25" viewBox="0 0 25 25" fill="none" xmlns="http://www.w3.org/2000/svg">
<g id="mdi:facebook">
<path id="Vector" d="M12.5234 2.91202C7.02344 2.91202 2.52344 7.40202 2.52344 12.932C2.52344 17.932 6.18344 22.082 10.9634 22.832V15.832H8.42344V12.932H10.9634V10.722C10.9634 8.21202 12.4534 6.83202 14.7434 6.83202C15.8334 6.83202 16.9734 7.02202 16.9734 7.02202V9.49202H15.7134C14.4734 9.49202 14.0834 10.262 14.0834 11.052V12.932H16.8634L16.4134 15.832H14.0834V22.832C16.4399 22.4599 18.5856 21.2575 20.1334 19.4421C21.6811 17.6266 22.5288 15.3177 22.5234 12.932C22.5234 7.40202 18.0234 2.91202 12.5234 2.91202Z" fill="white"/>
</g>
</svg>
