<svg width="24" height="24" viewBox="0 0 24 24" fill="none" xmlns="http://www.w3.org/2000/svg">
<g id="fi-rr-moon" clip-path="url(#clip0_23_334)">
<path id="Vector" d="M15.0002 23.9997C13.3197 23.9985 11.6581 23.6448 10.1227 22.9617C8.58732 22.2786 7.21222 21.2811 6.08615 20.0337C4.95159 18.7849 4.09557 17.309 3.5749 15.704C3.05423 14.0991 2.88081 12.4018 3.06615 10.7247C3.36496 8.11473 4.50355 5.67245 6.31052 3.76557C8.11748 1.85869 10.495 0.590426 13.0852 0.151721C14.7596 -0.106905 16.4683 -0.0372776 18.1162 0.356721C18.5476 0.46758 18.9417 0.691725 19.2575 1.00596C19.5732 1.3202 19.7993 1.71311 19.9123 2.14404C20.0253 2.57498 20.0211 3.02827 19.9001 3.45703C19.7791 3.88578 19.5457 4.27442 19.2242 4.58272C14.6642 8.74872 15.0602 15.2267 20.0312 18.9927C20.3826 19.2686 20.6538 19.6336 20.8163 20.0498C20.9789 20.466 21.0269 20.9181 20.9554 21.3592C20.884 21.8003 20.6956 22.2141 20.4099 22.5577C20.1243 22.9012 19.7518 23.162 19.3312 23.3127C17.933 23.7695 16.4711 24.0014 15.0002 23.9997ZM15.0762 1.99972C14.5147 1.99837 13.954 2.04083 13.3992 2.12672C11.2427 2.49144 9.26301 3.54676 7.75817 5.13385C6.25332 6.72094 5.30472 8.7539 5.05515 10.9267C4.89916 12.3268 5.04292 13.744 5.47689 15.0842C5.91087 16.4244 6.62511 17.6569 7.57215 18.6997C8.95849 20.1794 10.7444 21.2249 12.7133 21.7095C14.6822 22.1941 16.7494 22.0969 18.6642 21.4297C18.7467 21.3988 18.8196 21.3466 18.8755 21.2784C18.9313 21.2103 18.9682 21.1286 18.9823 21.0415C18.9964 20.9545 18.9873 20.8654 18.9558 20.783C18.9244 20.7007 18.8717 20.6281 18.8032 20.5727C12.8742 16.0947 12.4032 8.08672 17.8552 3.12372C17.9177 3.06563 17.9628 2.99125 17.9854 2.90893C18.0081 2.82661 18.0073 2.73961 17.9832 2.65772C17.9624 2.57081 17.9182 2.49123 17.8555 2.4276C17.7927 2.36397 17.7138 2.31871 17.6272 2.29672C16.7919 2.09525 15.9354 1.99552 15.0762 1.99972Z" fill="white"/>
</g>
<defs>
<clipPath id="clip0_23_334">
<rect width="24" height="24" fill="white"/>
</clipPath>
</defs>
</svg>
