<svg width="41" height="40" viewBox="0 0 41 40" fill="none" xmlns="http://www.w3.org/2000/svg">
<g id="Github" clip-path="url(#clip0_91_655)">
<path id="Vector" d="M20.4975 0C9.45501 0 0.500012 8.99 0.500012 20.08C0.4955 24.2889 1.8138 28.3927 4.26859 31.8116C6.72338 35.2304 10.1905 37.7914 14.18 39.1325C15.18 39.3175 15.545 38.6975 15.545 38.165C15.545 37.6875 15.5275 36.425 15.5175 34.75C9.95501 35.9625 8.78001 32.0575 8.78001 32.0575C7.87251 29.7375 6.56001 29.12 6.56001 29.12C4.74251 27.875 6.69501 27.9 6.69501 27.9C8.70251 28.0425 9.75751 29.97 9.75751 29.97C11.5425 33.0375 14.44 32.1525 15.58 31.6375C15.76 30.34 16.2775 29.455 16.85 28.9525C12.41 28.445 7.74001 26.7225 7.74001 19.03C7.74001 16.8375 8.52001 15.045 9.80001 13.64C9.59251 13.1325 8.90751 11.09 9.99501 8.3275C9.99501 8.3275 11.675 7.7875 15.495 10.385C17.1269 9.93903 18.8108 9.71204 20.5025 9.71C22.1943 9.71336 23.8782 9.94118 25.51 10.3875C29.3275 7.79 31.005 8.33 31.005 8.33C32.095 11.095 31.41 13.135 31.205 13.6425C32.4875 15.0475 33.26 16.84 33.26 19.0325C33.26 26.745 28.585 28.4425 24.13 28.94C24.8475 29.56 25.4875 30.785 25.4875 32.6575C25.4875 35.3425 25.4625 37.5075 25.4625 38.165C25.4625 38.7025 25.8225 39.3275 26.8375 39.13C30.8231 37.7857 34.286 35.2238 36.7373 31.8058C39.1887 28.3877 40.5048 24.2862 40.5 20.08C40.5 8.99 31.545 0 20.4975 0Z" fill="black"/>
</g>
<defs>
<clipPath id="clip0_91_655">
<rect width="40" height="40" fill="white" transform="translate(0.5)"/>
</clipPath>
</defs>
</svg>
