<svg width="25" height="25" viewBox="0 0 25 25" fill="none" xmlns="http://www.w3.org/2000/svg">
<g id="uil:instagram">
<path id="Vector" d="M17.8634 6.33201C17.6261 6.33201 17.3941 6.40239 17.1968 6.53425C16.9994 6.6661 16.8456 6.85352 16.7548 7.07279C16.664 7.29206 16.6402 7.53334 16.6865 7.76612C16.7328 7.99889 16.8471 8.21271 17.0149 8.38054C17.1827 8.54836 17.3966 8.66265 17.6293 8.70895C17.8621 8.75525 18.1034 8.73149 18.3227 8.64066C18.5419 8.54984 18.7293 8.39603 18.8612 8.19869C18.9931 8.00135 19.0634 7.76935 19.0634 7.53201C19.0634 7.21375 18.937 6.90852 18.712 6.68348C18.4869 6.45844 18.1817 6.33201 17.8634 6.33201ZM22.4634 8.75201C22.444 7.92231 22.2886 7.10141 22.0034 6.32201C21.7492 5.65514 21.3534 5.05129 20.8434 4.55201C20.3483 4.03944 19.743 3.64619 19.0734 3.40201C18.2961 3.10817 17.4743 2.94922 16.6434 2.93201C15.5834 2.87201 15.2434 2.87201 12.5234 2.87201C9.80344 2.87201 9.46344 2.87201 8.40344 2.93201C7.57259 2.94922 6.75078 3.10817 5.97344 3.40201C5.30511 3.64866 4.70037 4.04157 4.20344 4.55201C3.69086 5.04719 3.29761 5.65245 3.05344 6.32201C2.7596 7.09935 2.60065 7.92116 2.58344 8.75201C2.52344 9.81201 2.52344 10.152 2.52344 12.872C2.52344 15.592 2.52344 15.932 2.58344 16.992C2.60065 17.8229 2.7596 18.6447 3.05344 19.422C3.29761 20.0916 3.69086 20.6968 4.20344 21.192C4.70037 21.7024 5.30511 22.0954 5.97344 22.342C6.75078 22.6358 7.57259 22.7948 8.40344 22.812C9.46344 22.872 9.80344 22.872 12.5234 22.872C15.2434 22.872 15.5834 22.872 16.6434 22.812C17.4743 22.7948 18.2961 22.6358 19.0734 22.342C19.743 22.0978 20.3483 21.7046 20.8434 21.192C21.3557 20.6946 21.7518 20.0902 22.0034 19.422C22.2886 18.6426 22.444 17.8217 22.4634 16.992C22.4634 15.932 22.5234 15.592 22.5234 12.872C22.5234 10.152 22.5234 9.81201 22.4634 8.75201ZM20.6634 16.872C20.6562 17.5068 20.5412 18.1357 20.3234 18.732C20.1638 19.1672 19.9073 19.5604 19.5734 19.882C19.2491 20.2125 18.8567 20.4684 18.4234 20.632C17.8271 20.8498 17.1982 20.9647 16.5634 20.972C15.5634 21.022 15.1934 21.032 12.5634 21.032C9.93344 21.032 9.56344 21.032 8.56344 20.972C7.90433 20.9844 7.24803 20.8829 6.62344 20.672C6.20922 20.5001 5.83479 20.2448 5.52344 19.922C5.19153 19.6008 4.93828 19.2072 4.78344 18.772C4.53929 18.1672 4.40388 17.524 4.38344 16.872C4.38344 15.872 4.32344 15.502 4.32344 12.872C4.32344 10.242 4.32344 9.87201 4.38344 8.87201C4.38792 8.22306 4.50639 7.57995 4.73344 6.97201C4.90948 6.54992 5.1797 6.17367 5.52344 5.87201C5.82725 5.52818 6.20273 5.25511 6.62344 5.07201C7.23299 4.85205 7.87543 4.73709 8.52344 4.73201C9.52344 4.73201 9.89344 4.67201 12.5234 4.67201C15.1534 4.67201 15.5234 4.67201 16.5234 4.73201C17.1582 4.73929 17.7871 4.85426 18.3834 5.07201C18.8379 5.24066 19.2457 5.51486 19.5734 5.87201C19.9011 6.17919 20.1572 6.55474 20.3234 6.97201C20.5457 7.58094 20.6607 8.22379 20.6634 8.87201C20.7134 9.87201 20.7234 10.242 20.7234 12.872C20.7234 15.502 20.7134 15.872 20.6634 16.872ZM12.5234 7.74201C11.5092 7.74399 10.5184 8.04654 9.67609 8.61143C8.83378 9.17632 8.17782 9.97821 7.79107 10.9158C7.40433 11.8533 7.30416 12.8845 7.50323 13.8789C7.7023 14.8734 8.19167 15.7865 8.90951 16.503C9.62735 17.2194 10.5414 17.707 11.5363 17.9042C12.5311 18.1013 13.5621 17.9991 14.4989 17.6105C15.4357 17.222 16.2363 16.5644 16.7996 15.721C17.3628 14.8776 17.6634 13.8862 17.6634 12.872C17.6648 12.1971 17.5326 11.5286 17.2747 10.905C17.0167 10.2813 16.638 9.71482 16.1603 9.23806C15.6826 8.7613 15.1154 8.38369 14.4912 8.12694C13.8671 7.87019 13.1983 7.73937 12.5234 7.74201ZM12.5234 16.202C11.8648 16.202 11.221 16.0067 10.6734 15.6408C10.1258 15.2749 9.69896 14.7548 9.44692 14.1463C9.19488 13.5379 9.12893 12.8683 9.25742 12.2224C9.38591 11.5764 9.70306 10.9831 10.1688 10.5173C10.6345 10.0516 11.2278 9.73448 11.8738 9.60599C12.5197 9.47751 13.1893 9.54345 13.7978 9.79549C14.4063 10.0475 14.9263 10.4743 15.2922 11.022C15.6581 11.5696 15.8534 12.2134 15.8534 12.872C15.8534 13.3093 15.7673 13.7423 15.6 14.1463C15.4326 14.5504 15.1873 14.9175 14.8781 15.2267C14.5689 15.5359 14.2018 15.7812 13.7978 15.9485C13.3938 16.1159 12.9607 16.202 12.5234 16.202Z" fill="white"/>
</g>
</svg>
