<svg width="25" height="25" viewBox="0 0 25 25" fill="none" xmlns="http://www.w3.org/2000/svg">
<g id="uil:linkedin">
<path id="Vector" d="M20.993 2.872H4.05301C3.86259 2.86935 3.67351 2.90424 3.49657 2.97468C3.31964 3.04512 3.15831 3.14972 3.02181 3.28251C2.8853 3.4153 2.77629 3.57368 2.701 3.74861C2.62571 3.92353 2.58562 4.11157 2.58301 4.302V21.442C2.58562 21.6324 2.62571 21.8205 2.701 21.9954C2.77629 22.1703 2.8853 22.3287 3.02181 22.4615C3.15831 22.5943 3.31964 22.6989 3.49657 22.7693C3.67351 22.8398 3.86259 22.8746 4.05301 22.872H20.993C21.1834 22.8746 21.3725 22.8398 21.5494 22.7693C21.7264 22.6989 21.8877 22.5943 22.0242 22.4615C22.1607 22.3287 22.2697 22.1703 22.345 21.9954C22.4203 21.8205 22.4604 21.6324 22.463 21.442V4.302C22.4604 4.11157 22.4203 3.92353 22.345 3.74861C22.2697 3.57368 22.1607 3.4153 22.0242 3.28251C21.8877 3.14972 21.7264 3.04512 21.5494 2.97468C21.3725 2.90424 21.1834 2.86935 20.993 2.872ZM8.61301 19.612H5.61301V10.612H8.61301V19.612ZM7.11301 9.352C6.69927 9.352 6.30248 9.18764 6.00992 8.89508C5.71736 8.60253 5.55301 8.20573 5.55301 7.792C5.55301 7.37826 5.71736 6.98147 6.00992 6.68891C6.30248 6.39635 6.69927 6.232 7.11301 6.232C7.3327 6.20708 7.55518 6.22885 7.76588 6.29588C7.97658 6.36291 8.17075 6.47369 8.33566 6.62096C8.50058 6.76823 8.63253 6.94868 8.72288 7.15048C8.81322 7.35228 8.85993 7.57089 8.85993 7.792C8.85993 8.0131 8.81322 8.23171 8.72288 8.43351C8.63253 8.63532 8.50058 8.81576 8.33566 8.96304C8.17075 9.11031 7.97658 9.22108 7.76588 9.28811C7.55518 9.35514 7.3327 9.37691 7.11301 9.352ZM19.433 19.612H16.433V14.782C16.433 13.572 16.003 12.782 14.913 12.782C14.5757 12.7845 14.2472 12.8903 13.9718 13.0852C13.6965 13.2801 13.4875 13.5547 13.373 13.872C13.2948 14.107 13.2608 14.3546 13.273 14.602V19.602H10.273V10.602H13.273V11.872C13.5455 11.3991 13.9419 11.0095 14.4194 10.7452C14.897 10.4809 15.4376 10.3518 15.983 10.372C17.983 10.372 19.433 11.662 19.433 14.432V19.612Z" fill="white"/>
</g>
</svg>
