<svg xmlns="http://www.w3.org/2000/svg" viewBox="0 0 621.29 621.29"><defs><style>.cls-1{fill:#fff;}.cls-2{fill:#ff1013;}</style></defs><g id="Layer_2" data-name="Layer 2"><g id="Layer_1-2" data-name="Layer 1"><circle class="cls-1" cx="310.65" cy="310.65" r="310.65"/><path class="cls-2" d="M389.91,189c1.72.61,3.12,1.54,2.81,2-.32.62-19,19.14-41.58,41.21l-40.95,40.13L270,231.61c-22.27-22.53-40-41.36-39.55-42.13,1.4-2.32,29.12-1.39,32.54,1.08,1.56,1.39,13.23,12.35,25.85,24.69,12.46,12.35,23.51,22.38,24.44,22.38.78,0,11.37-9.72,23.36-21.45C348.49,204.3,360.8,193.49,363.6,192,372.16,187.63,381.82,186.39,389.91,189Z"/><path class="cls-2" d="M195.12,192.57c3.43,1.38,25.69,22.53,60.88,57.72,43.29,43.37,56.06,55.41,57.93,54.33,1.24-.77,26.31-25.78,55.59-55.41,30.83-31.18,55.89-55.56,59.63-57.57,5.14-2.62,8.88-3.4,18.69-3.4,8.72,0,12.14.62,12.14,2,0,1.08-29.74,31.33-66.17,67.45-36.44,36-66.18,65.9-66.18,66.52s3.89,6,8.72,12.19c4.83,6,8.41,11.27,8.1,11.73-.47.31-15.26.47-32.86.31L279.52,348l7-9.26c3.74-5.09,6.7-10.5,6.54-11.89s-29.89-32.25-65.86-68.52S161.64,192,161.33,191.18c-.62-1.39,13.39-2.47,22.27-1.55A46.61,46.61,0,0,1,195.12,192.57Z"/><path class="cls-2" d="M205.4,262.48c12.77,16.36,11.68,7.26,11.68,92.76,0,74.71-.16,76.71-3,77.64-5,1.54-43.76.46-44.85-1.24-.62-.92,3-5.09,7.63-9.41,14.64-13.12,13.86-8,14.64-91.53.31-40.44,1.09-73.93,1.56-74.7C195.12,252.76,199.79,255.23,205.4,262.48Z"/><path class="cls-2" d="M433.51,327.62c0,46.45.47,74.23,1.56,78.25,1.24,4.47,4.05,8.18,10.9,14,11,9.42,11.83,12.19,3.58,12.19-3.27,0-12.92.31-21.49.62s-16.81,0-18.22-.77c-2.64-1.39-2.8-6.48-2.8-74.86,0-61.42.31-74.23,2.34-79,2.33-5.55,20.55-23.77,23-23C433.2,255.23,433.67,288,433.51,327.62Z"/><path class="cls-2" d="M262.08,321c3.11,5.55,3.27,8,3.27,44.76,0,24.38.62,40,1.71,42.13.93,1.86,5.92,7.26,11.05,12,14,12.81,12.93,13.74-14.16,13.74-20.87,0-22-.16-23.67-3.4-1.25-2.47-1.41-19.75-.63-67l1.09-63.75,9,7.88C254.76,311.72,260.21,317.74,262.08,321Z"/><path class="cls-2" d="M383.37,301.22c2.34,2.32,2.65,125.64.31,129.34-1.24,1.85-5.6,2.32-24.13,2.32-14.79,0-22.58-.62-22.58-1.7,0-.77,3.9-5.25,8.72-9.72,12.93-12.2,13.08-12.66,13.08-56.8,0-30.25.47-39.21,2.18-42.45,2.49-4.63,18.22-22.84,19.62-22.84A6.42,6.42,0,0,1,383.37,301.22Z"/><circle class="cls-2" cx="310.65" cy="310.65" r="310.65"/><path class="cls-1" d="M389.91,189c1.72.61,3.12,1.54,2.81,2-.32.62-19,19.14-41.58,41.21l-40.95,40.13L270,231.61c-22.27-22.53-40-41.36-39.55-42.13,1.4-2.32,29.12-1.39,32.54,1.08,1.56,1.39,13.23,12.35,25.85,24.69,12.46,12.35,23.51,22.38,24.44,22.38.78,0,11.37-9.72,23.36-21.45C348.49,204.3,360.8,193.49,363.6,192,372.16,187.63,381.82,186.39,389.91,189Z"/><path class="cls-1" d="M195.12,192.57c3.43,1.38,25.69,22.53,60.88,57.72,43.29,43.37,56.06,55.41,57.93,54.33,1.24-.77,26.31-25.78,55.59-55.41,30.83-31.18,55.89-55.56,59.63-57.57,5.14-2.62,8.88-3.4,18.69-3.4,8.72,0,12.14.62,12.14,2,0,1.08-29.74,31.33-66.17,67.45-36.44,36-66.18,65.9-66.18,66.52s3.89,6,8.72,12.19c4.83,6,8.41,11.27,8.1,11.73-.47.31-15.26.47-32.86.31L279.52,348l7-9.26c3.74-5.09,6.7-10.5,6.54-11.89s-29.89-32.25-65.86-68.52S161.64,192,161.33,191.18c-.62-1.39,13.39-2.47,22.27-1.55A46.61,46.61,0,0,1,195.12,192.57Z"/><path class="cls-1" d="M205.4,262.48c12.77,16.36,11.68,7.26,11.68,92.76,0,74.71-.16,76.71-3,77.64-5,1.54-43.76.46-44.85-1.24-.62-.92,3-5.09,7.63-9.41,14.64-13.12,13.86-8,14.64-91.53.31-40.44,1.09-73.93,1.56-74.7C195.12,252.76,199.79,255.23,205.4,262.48Z"/><path class="cls-1" d="M433.51,327.62c0,46.45.47,74.23,1.56,78.25,1.24,4.47,4.05,8.18,10.9,14,11,9.42,11.83,12.19,3.58,12.19-3.27,0-12.92.31-21.49.62s-16.81,0-18.22-.77c-2.64-1.39-2.8-6.48-2.8-74.86,0-61.42.31-74.23,2.34-79,2.33-5.55,20.55-23.77,23-23C433.2,255.23,433.67,288,433.51,327.62Z"/><path class="cls-1" d="M262.08,321c3.11,5.55,3.27,8,3.27,44.76,0,24.38.62,40,1.71,42.13.93,1.86,5.92,7.26,11.05,12,14,12.81,12.93,13.74-14.16,13.74-20.87,0-22-.16-23.67-3.4-1.25-2.47-1.41-19.75-.63-67l1.09-63.75,9,7.88C254.76,311.72,260.21,317.74,262.08,321Z"/><path class="cls-1" d="M383.37,301.22c2.34,2.32,2.65,125.64.31,129.34-1.24,1.85-5.6,2.32-24.13,2.32-14.79,0-22.58-.62-22.58-1.7,0-.77,3.9-5.25,8.72-9.72,12.93-12.2,13.08-12.66,13.08-56.8,0-30.25.47-39.21,2.18-42.45,2.49-4.63,18.22-22.84,19.62-22.84A6.42,6.42,0,0,1,383.37,301.22Z"/></g></g></svg>