<svg width="32" height="32" viewBox="0 0 32 32" fill="none" xmlns="http://www.w3.org/2000/svg">
<rect width="32" height="32" fill="#F5F5F5"/>
<g id="Desktop - 3" clip-path="url(#clip0_0_1)">
<rect width="1440" height="9179" transform="translate(-282 -44)" fill="white"/>
<g id="Accent" filter="url(#filter0_f_0_1)">
<path d="M323 499C323 623.264 222.264 724 98 724C-26.2641 724 -127 623.264 -127 499C-127 374.736 -26.2641 274 98 274C222.264 274 323 374.736 323 499Z" fill="#3FB3E6" fill-opacity="0.3"/>
</g>
<g id="Component 5">
<rect id="Rectangle 22484" x="-103.5" y="-7.5" width="149" height="47" rx="7.5" stroke="#EF2B2D"/>
<g id="Frame 1000001418">
<g id="National Flag Of Egypt" clip-path="url(#clip1_0_1)">
<path id="Vector" d="M31.7812 16C31.783 18.4429 31.2159 20.8525 30.125 23.0382H1.87495C0.934436 21.1481 0.382074 19.0887 0.25047 16.9816C0.118865 14.8746 0.410684 12.7625 1.1087 10.77C1.31262 10.1824 1.55288 9.60792 1.82808 9.05005H30.1712C30.4469 9.60779 30.6873 10.1822 30.8912 10.77C31.4828 12.4502 31.7838 14.2188 31.7812 16Z" fill="#F2F2F2"/>
<path id="Vector_2" d="M30.8909 10.77H1.1084C1.31232 10.1823 1.55257 9.60784 1.82777 9.04997C3.12816 6.4003 5.14534 4.16827 7.65033 2.60725C10.1553 1.04623 13.0478 0.21875 15.9993 0.21875C18.9509 0.21875 21.8434 1.04623 24.3483 2.60725C26.8533 4.16827 28.8705 6.4003 30.1709 9.04997C30.4466 9.60771 30.687 10.1822 30.8909 10.77Z" fill="#EF2B2D"/>
<path id="Vector_3" d="M30.8914 21.2332C30.6742 21.8503 30.4183 22.4532 30.1252 23.0382C28.8159 25.6647 26.8002 27.8742 24.3047 29.4186C21.8091 30.9629 18.9325 31.7811 15.9977 31.7811C13.0629 31.7811 10.1862 30.9629 7.6907 29.4186C5.19515 27.8742 3.17954 25.6647 1.8702 23.0382C1.57798 22.4531 1.32289 21.8503 1.10645 21.2332H30.8914Z" fill="#242D44"/>
<path id="Vector_4" d="M18.2227 13.9057L18.3945 18.3069L18.777 18.6894L18.557 13.6332L18.2227 13.9057Z" fill="#F28623"/>
<path id="Vector_5" d="M17.993 17.9057L18.2224 18.1825L18.0599 14.045L17.7637 14.2644L17.993 17.9057Z" fill="#F28623"/>
<path id="Vector_6" d="M13.3122 13.4757L13.0385 13.7194C13.0385 13.5769 13.0647 13.3557 13.2222 13.2457C13.4891 13.0582 13.8241 13.1101 14.2172 13.3963C14.478 13.5783 14.7874 13.678 15.1054 13.6826C15.0685 13.7363 15.0429 13.7688 15.0429 13.7701C15.0374 13.7772 15.0341 13.7858 15.0332 13.7947C15.0324 13.8037 15.034 13.8127 15.0379 13.8208C15.0419 13.8289 15.048 13.8357 15.0556 13.8406C15.0632 13.8454 15.072 13.848 15.081 13.8482C15.1697 13.8482 15.3485 13.7663 15.4522 13.7144L15.4416 13.9019C15.4412 13.9104 15.443 13.9188 15.4468 13.9264C15.4507 13.934 15.4564 13.9404 15.4635 13.9451C15.4713 13.9501 15.4804 13.9529 15.4897 13.9532C15.4974 13.9532 15.5049 13.9512 15.5116 13.9476C15.6224 13.8822 15.727 13.8069 15.8241 13.7226L15.9672 13.8907C15.9714 13.8956 15.9766 13.8996 15.9824 13.9025C15.9882 13.9054 15.9945 13.9071 16.001 13.9076C16.0075 13.9082 16.0141 13.9073 16.0203 13.9051C16.0265 13.9028 16.032 13.8992 16.0366 13.8944L16.1935 13.7501C16.3241 13.8988 16.5885 13.9069 16.601 13.9076C16.6079 13.9085 16.6149 13.9076 16.6213 13.9048C16.6277 13.902 16.6332 13.8976 16.6372 13.8919C16.6419 13.887 16.6455 13.881 16.6478 13.8746C16.65 13.8681 16.6509 13.8613 16.6504 13.8544L16.6435 13.7832C16.7427 13.8094 16.8457 13.8181 16.9479 13.8088C16.9565 13.8079 16.9648 13.8047 16.9718 13.7995C16.9788 13.7943 16.9844 13.7874 16.9879 13.7794C16.9913 13.7713 16.9924 13.7624 16.9911 13.7537C16.9898 13.745 16.9861 13.7368 16.9804 13.7301C16.966 13.7126 16.956 13.6926 16.9422 13.6744C17.0935 13.6607 17.4029 13.6169 17.6297 13.4794C17.8397 13.3544 18.3322 13.0582 18.6604 13.1588C18.7167 13.1769 18.7683 13.2073 18.8115 13.2477C18.8547 13.2881 18.8885 13.3376 18.9104 13.3926C18.9565 13.4954 18.9756 13.6084 18.966 13.7207L18.6897 13.4744L18.8622 18.7357L19.2822 19.1276L19.1197 13.8582L19.0541 13.7994C19.0818 13.6468 19.0615 13.4894 18.996 13.3488C18.9685 13.2822 18.9268 13.2224 18.8738 13.1736C18.8208 13.1248 18.7577 13.0882 18.6891 13.0663C18.3197 12.9526 17.801 13.2632 17.5797 13.3963C17.3354 13.5432 16.9779 13.5757 16.8766 13.5838C16.636 13.1744 16.6391 12.6307 16.6416 12.2907C16.6416 12.1957 16.6416 12.1138 16.6416 12.0532C16.6405 12.0339 16.6382 12.0147 16.6347 11.9957C16.5829 11.7194 16.3504 11.6376 16.081 11.5426C16.0354 11.5225 15.9861 11.5121 15.9363 11.5121C15.8865 11.5121 15.8372 11.5225 15.7916 11.5426C15.7588 11.5602 15.7314 11.5863 15.7122 11.6182C15.592 11.5896 15.4689 11.5745 15.3454 11.5732C15.3368 11.5726 15.3283 11.5726 15.3197 11.5732C15.2845 11.5786 15.2514 11.5937 15.2241 11.6168C15.1969 11.6398 15.1766 11.6699 15.1654 11.7038C15.1324 11.8025 15.1207 11.9071 15.131 12.0107C15.1317 12.0188 15.1345 12.0265 15.1391 12.0332C15.1437 12.04 15.1498 12.0454 15.1571 12.0491C15.1643 12.0528 15.1724 12.0546 15.1805 12.0543C15.1886 12.054 15.1965 12.0517 15.2035 12.0476L15.3054 11.9851C15.421 11.9926 15.5072 12.1026 15.5485 12.1688C15.5704 12.2038 15.5791 12.2219 15.5791 12.2219C15.6997 12.6801 15.3641 13.2844 15.1697 13.5851C14.8504 13.5922 14.5369 13.4988 14.2735 13.3182C13.7379 12.9276 13.376 13.0207 13.166 13.1663C12.9329 13.3288 12.9335 13.6663 12.9441 13.8032L12.8816 13.8594L12.7197 19.1288L13.1397 18.7369L13.3122 13.4757ZM15.6672 12.1876C15.6672 12.1876 15.656 12.1632 15.6354 12.1251C15.7091 12.1148 15.7842 12.1197 15.856 12.1394C15.856 12.1394 15.606 11.8488 15.4185 11.8226C15.3903 11.816 15.3607 11.8189 15.3344 11.8309C15.3081 11.8429 15.2864 11.8633 15.2729 11.8888C15.2708 11.8885 15.2687 11.8885 15.2666 11.8888L15.2235 11.9144C15.2231 11.8527 15.2335 11.7914 15.2541 11.7332C15.2581 11.7238 15.2629 11.7148 15.2685 11.7063C15.3466 11.6959 15.4254 11.6917 15.5041 11.6938C15.6191 11.7013 15.9672 12.0182 15.9672 12.0182C16.0633 11.9211 16.1916 11.8626 16.3279 11.8538C16.3606 11.8504 16.3937 11.8542 16.4248 11.865C16.4559 11.8758 16.4843 11.8933 16.5079 11.9163C16.5226 11.9457 16.5331 11.9771 16.5391 12.0094C16.5419 12.0249 16.5438 12.0406 16.5447 12.0563C16.5491 12.1132 16.5485 12.1932 16.5479 12.2857C16.5447 12.6426 16.5429 13.2138 16.8097 13.6488C16.8117 13.6554 16.8154 13.6615 16.8204 13.6663C16.8304 13.6819 16.8372 13.6982 16.8479 13.7132C16.7688 13.7175 16.6901 13.7 16.6204 13.6626C16.3922 13.4126 16.376 12.7138 16.376 12.7069C16.3758 12.6943 16.3707 12.6822 16.3617 12.6733C16.3527 12.6644 16.3405 12.6594 16.3279 12.6594C16.3215 12.6595 16.3152 12.6609 16.3093 12.6634C16.3035 12.6659 16.2982 12.6696 16.2938 12.6742C16.2894 12.6788 16.2859 12.6842 16.2836 12.6902C16.2813 12.6961 16.2802 12.7024 16.2804 12.7088C16.2804 12.7388 16.2979 13.4344 16.5416 13.7169L16.5497 13.8044C16.4547 13.7919 16.3041 13.7526 16.246 13.6538C16.1597 13.3769 16.1985 12.7163 16.1985 12.7107C16.1992 12.698 16.1948 12.6855 16.1864 12.6759C16.178 12.6663 16.1662 12.6604 16.1535 12.6594C16.147 12.6585 16.1404 12.659 16.1342 12.6609C16.1279 12.6628 16.1222 12.666 16.1173 12.6704C16.1124 12.6747 16.1085 12.6801 16.1059 12.6861C16.1033 12.692 16.1021 12.6985 16.1022 12.7051C16.1022 12.7319 16.0641 13.3563 16.1479 13.6601L16.0091 13.7851L15.891 13.6463C15.9854 13.4713 16.0441 12.8838 16.061 12.6926C16.0621 12.6798 16.0582 12.6671 16.05 12.6572C16.0418 12.6474 16.03 12.6412 16.0172 12.6401C16.0045 12.6389 15.9918 12.6429 15.9819 12.6511C15.9721 12.6593 15.9659 12.671 15.9647 12.6838C15.9285 13.0926 15.8554 13.5638 15.8004 13.6132C15.8004 13.6132 15.6585 13.7382 15.5441 13.8113L15.5535 13.6526C15.7441 13.5082 15.8579 12.8488 15.8797 12.7151C15.8816 12.7085 15.882 12.7015 15.881 12.6947C15.88 12.688 15.8776 12.6815 15.8739 12.6757C15.8702 12.6699 15.8653 12.665 15.8596 12.6612C15.8539 12.6574 15.8474 12.6549 15.8407 12.6538C15.8339 12.6527 15.827 12.653 15.8203 12.6548C15.8137 12.6565 15.8075 12.6596 15.8022 12.664C15.7968 12.6683 15.7925 12.6737 15.7893 12.6798C15.7862 12.6859 15.7844 12.6926 15.7841 12.6994C15.7347 13.0119 15.6104 13.5251 15.4854 13.5857C15.3928 13.6351 15.2975 13.6789 15.1997 13.7169C15.3785 13.4538 15.8122 12.7432 15.6672 12.1876Z" fill="#F28623"/>
<path id="Vector_7" d="M13.2227 18.6894L13.6052 18.3069L13.777 13.9057L13.4427 13.6332L13.2227 18.6894Z" fill="#F28623"/>
<path id="Vector_8" d="M14.2361 14.2644L13.9398 14.045L13.7773 18.1825L14.0067 17.9057L14.2361 14.2644Z" fill="#F28623"/>
<path id="Vector_9" d="M15.5317 16.5444V14.4856C15.3065 14.566 15.0701 14.6107 14.8311 14.6181C14.8786 15.5263 15.2142 16.1506 15.5317 16.5444ZM16.5004 14.4838V16.5769C17.0267 15.925 17.1711 15.0256 17.2104 14.6231C16.9689 14.6063 16.7304 14.5595 16.5004 14.4838Z" fill="#F28623"/>
<path id="Vector_10" d="M18.9054 19.4562H18.8047C18.7786 19.4071 18.7421 19.3642 18.6978 19.3307C18.6534 19.2971 18.6022 19.2736 18.5479 19.2618V19.1874C18.5643 19.1425 18.5699 19.0943 18.5644 19.0468C18.5589 18.9993 18.5423 18.9537 18.516 18.9137C18.4716 18.8587 18.4162 18.8136 18.3533 18.7813C18.2905 18.749 18.2215 18.7302 18.151 18.7262C18.0699 18.73 17.9896 18.7432 17.9116 18.7656L17.5535 17.5462L17.7635 17.7424L17.6679 14.3212L17.4804 14.3987C17.4804 14.3931 17.4804 14.3868 17.4741 14.3824C17.465 14.3733 17.4527 14.3679 17.4397 14.3674C16.4785 14.3562 16.0479 13.9499 16.0441 13.9456C16.0358 13.9377 16.025 13.933 16.0135 13.9323C16.0021 13.9317 15.9908 13.935 15.9816 13.9418C15.5908 14.2416 15.1034 14.3871 14.6122 14.3506C14.6057 14.35 14.5991 14.3509 14.593 14.3531C14.5868 14.3554 14.5812 14.359 14.5766 14.3637C14.5672 14.3729 14.5618 14.3855 14.5616 14.3987C14.5616 14.4049 14.5616 14.4099 14.5616 14.4162L14.3322 14.3212L14.2366 17.7424L14.4779 17.5174L14.3747 17.8749L14.1004 18.8087C14.0574 18.797 14.0156 18.7815 13.9754 18.7624C13.9496 18.7449 13.9202 18.7334 13.8894 18.7287C13.8585 18.7241 13.827 18.7264 13.7972 18.7356C13.7631 18.7488 13.7343 18.773 13.7154 18.8043C13.6778 18.8061 13.6411 18.8159 13.6077 18.833C13.5743 18.8502 13.5449 18.8743 13.5216 18.9037C13.4435 19.0049 13.4504 19.1537 13.4591 19.2356C13.4005 19.2466 13.3468 19.2758 13.3059 19.3191C13.2649 19.3625 13.2387 19.4177 13.231 19.4768L13.1154 19.5156C13.1062 19.5185 13.0981 19.5242 13.0922 19.5318C13.0862 19.5395 13.0827 19.5487 13.0821 19.5583C13.0815 19.568 13.0838 19.5776 13.0888 19.5859C13.0937 19.5942 13.101 19.6009 13.1097 19.6049L13.1829 19.6399C13.1824 19.7028 13.2004 19.7645 13.2344 19.8173C13.2685 19.8702 13.3173 19.9119 13.3747 19.9374C13.3272 20.1506 13.4772 20.2024 13.5691 20.2337C13.592 20.2405 13.6142 20.2495 13.6354 20.2606C13.7547 20.3281 15.1822 20.4449 15.8797 20.4799C15.9929 20.4856 16.106 20.4881 16.2185 20.4881C16.7587 20.479 17.298 20.4383 17.8335 20.3662L18.1647 20.3281C18.4316 20.2993 18.5991 20.2224 18.6647 20.1006C18.6925 20.0462 18.6994 19.9835 18.6841 19.9243C18.8016 19.8687 18.8291 19.7324 18.826 19.6456L18.9385 19.5374C18.9455 19.5308 18.9504 19.5222 18.9525 19.5127C18.9546 19.5032 18.9537 19.4933 18.9501 19.4843C18.9464 19.4754 18.9401 19.4677 18.932 19.4623C18.924 19.457 18.9144 19.4542 18.9047 19.4543L18.9054 19.4562ZM17.8429 18.8849L17.7691 18.8968L17.8416 18.8806L17.8429 18.8849ZM15.0822 16.3531C15.0755 16.3616 15.072 16.3722 15.0722 16.3831L15.1066 16.7962L14.8191 17.0743L14.7397 16.9574L14.9735 16.1618C15.011 16.2287 15.0472 16.2918 15.0847 16.3531H15.0822ZM17.051 16.1868L17.2772 16.9568L17.1979 17.0743L16.9104 16.7962L16.9441 16.3862C16.9847 16.3206 17.021 16.2543 17.0535 16.1874L17.051 16.1868ZM15.4704 18.5112L15.3585 18.1674C15.3665 18.1649 15.3737 18.1601 15.3791 18.1537L15.6222 17.8831L15.4704 18.5112ZM16.4854 18.2574L16.4022 17.8899L16.6385 18.1524C16.6438 18.159 16.651 18.1638 16.6591 18.1662L16.5472 18.5099L16.4854 18.2574ZM16.5891 18.6912L16.7204 18.2893L16.9279 18.5856C16.933 18.5926 16.9398 18.5981 16.9477 18.6016C16.9556 18.6051 16.9643 18.6065 16.9729 18.6056C16.9815 18.6046 16.9898 18.6013 16.9967 18.596C17.0036 18.5907 17.009 18.5837 17.0122 18.5756L17.1429 18.2537L17.3485 18.5531C17.3525 18.5582 17.3575 18.5625 17.3632 18.5656C17.3689 18.5687 17.3751 18.5706 17.3816 18.5712L17.2566 18.9068L17.2366 18.9106L17.0941 18.7199C17.0891 18.7134 17.0825 18.7082 17.075 18.7048C17.0675 18.7015 17.0592 18.7 17.051 18.7006C17.0428 18.7014 17.0349 18.7043 17.0281 18.709C17.0214 18.7137 17.0159 18.7201 17.0122 18.7274L16.8947 18.9637C16.8155 18.9733 16.7357 18.9763 16.656 18.9724L16.5891 18.6912ZM17.1316 18.9299C17.0904 18.9374 17.051 18.9431 17.0116 18.9487L17.0647 18.8406L17.1316 18.9299ZM17.3691 18.8849L17.4416 18.6881L17.5597 18.8443L17.3691 18.8849ZM17.3729 18.4174L17.1741 18.1249C17.169 18.1179 17.1622 18.1123 17.1543 18.1087C17.1465 18.1051 17.1378 18.1036 17.1291 18.1043C17.1204 18.1053 17.1122 18.1086 17.1053 18.1139C17.0983 18.1192 17.093 18.1262 17.0897 18.1343L16.9585 18.4574L16.7497 18.1549C16.7437 18.1465 16.7352 18.1402 16.7254 18.1368C16.7256 18.1354 16.7256 18.1339 16.7254 18.1324L16.8504 17.6449L17.0529 17.8949C17.0583 17.9017 17.0655 17.9069 17.0736 17.9098C17.0818 17.9128 17.0906 17.9135 17.0991 17.9118C17.1077 17.9101 17.1158 17.9062 17.1224 17.9004C17.129 17.8945 17.1339 17.8871 17.1366 17.8787L17.2322 17.5662L17.5491 17.8981L17.3729 18.4174ZM17.2429 17.4374C17.2371 17.4313 17.2299 17.4269 17.2219 17.4244C17.2139 17.422 17.2054 17.4218 17.1972 17.4237C17.1889 17.4256 17.1813 17.4297 17.175 17.4355C17.1687 17.4413 17.1641 17.4487 17.1616 17.4568L17.0685 17.7612L16.8635 17.5112C16.8578 17.5042 16.8503 17.4989 16.8418 17.496C16.8333 17.493 16.8242 17.4924 16.8154 17.4943C16.8066 17.4963 16.7986 17.5007 16.7922 17.507C16.7857 17.5133 16.7812 17.5212 16.7791 17.5299L16.6541 18.0224L16.3954 17.7337L16.5947 17.1874L16.7822 17.4112C16.7867 17.4166 16.7924 17.421 16.7987 17.4241C16.8051 17.4271 16.8121 17.4287 16.8191 17.4287C16.8239 17.4293 16.8287 17.4293 16.8335 17.4287C16.8427 17.4258 16.8509 17.4202 16.8569 17.4127C16.8629 17.4051 16.8665 17.3959 16.8672 17.3862L16.9054 16.9237L17.1772 17.1868C17.1861 17.1955 17.198 17.2004 17.2104 17.2006H17.2154C17.2225 17.1997 17.2293 17.1974 17.2355 17.1938C17.2416 17.1901 17.2469 17.1852 17.251 17.1793L17.3172 17.0806L17.5047 17.7093L17.2429 17.4374ZM16.8235 16.7087L16.7697 16.6568C16.7922 16.6262 16.8141 16.5943 16.8354 16.5637L16.8235 16.7087ZM16.7104 16.7337L16.8129 16.8331L16.7779 17.2568L16.5197 16.9443C16.5871 16.8779 16.6508 16.8078 16.7104 16.7343V16.7337ZM16.4491 17.0124L16.5216 17.0999L16.3391 17.5999L16.2447 17.1799C16.316 17.1283 16.3842 17.0726 16.4491 17.0131V17.0124ZM15.7772 17.1599L15.7916 17.1781L15.786 17.1749L15.6966 17.5756L15.6879 17.6124L15.5004 17.0987L15.5904 16.9899C15.6591 17.0587 15.7222 17.1149 15.7772 17.1606V17.1599ZM15.2435 17.2568L15.2091 16.8331L15.3341 16.7081C15.3966 16.7862 15.4591 16.8587 15.5216 16.9206L15.2435 17.2568ZM15.1985 16.7087L15.1816 16.5031C15.2129 16.5481 15.2441 16.5931 15.2754 16.6343L15.1985 16.7087ZM14.7072 17.0768L14.7735 17.1756C14.7775 17.1814 14.7826 17.1863 14.7887 17.19C14.7947 17.1937 14.8015 17.196 14.8085 17.1968H14.8122C14.8248 17.1967 14.8369 17.1918 14.846 17.1831L15.1179 16.9199L15.156 17.3824C15.1566 17.3921 15.16 17.4013 15.1659 17.4088C15.1719 17.4164 15.1799 17.4221 15.1891 17.4249H15.2041C15.2112 17.4249 15.2181 17.4233 15.2245 17.4203C15.2309 17.4173 15.2365 17.4129 15.241 17.4074L15.4285 17.1837L15.6285 17.7299L15.3691 18.0187L15.2441 17.5262C15.242 17.5174 15.2375 17.5095 15.2311 17.5032C15.2246 17.4968 15.2166 17.4925 15.2078 17.4905C15.199 17.4886 15.1898 17.4891 15.1813 17.4921C15.1728 17.4951 15.1654 17.5004 15.1597 17.5074L14.9547 17.7574L14.861 17.4531C14.8587 17.4449 14.8542 17.4375 14.8481 17.4317C14.8419 17.4258 14.8343 17.4218 14.826 17.4199C14.8177 17.418 14.8092 17.4183 14.801 17.4207C14.7929 17.4231 14.7856 17.4276 14.7797 17.4337L14.5235 17.7018L14.7072 17.0768ZM14.7916 17.5637L14.8872 17.8762C14.8899 17.8845 14.8947 17.892 14.9012 17.8978C14.9076 17.9036 14.9156 17.9076 14.9241 17.9093C14.9327 17.9109 14.9416 17.9102 14.9498 17.9072C14.9581 17.9043 14.9654 17.8992 14.971 17.8924L15.1729 17.6424L15.2979 18.1299C15.2976 18.1314 15.2976 18.1329 15.2979 18.1343C15.288 18.1375 15.2794 18.1439 15.2735 18.1524L15.0622 18.4574L14.931 18.1343C14.9278 18.1262 14.9224 18.1192 14.9155 18.1139C14.9085 18.1086 14.9003 18.1053 14.8916 18.1043H14.8866C14.8788 18.1042 14.871 18.106 14.864 18.1096C14.857 18.1132 14.8511 18.1185 14.8466 18.1249L14.6454 18.4174L14.4735 17.8962L14.7916 17.5637ZM14.6697 18.9387C14.5854 18.9237 14.5035 18.9074 14.426 18.8906L14.5779 18.6893L14.6697 18.9387ZM14.8572 18.9693L14.9522 18.8443L15.026 18.9931C14.9729 18.9837 14.9166 18.9762 14.8591 18.9681L14.8572 18.9693ZM15.1397 19.0012L15.0041 18.7287C15.0004 18.7214 14.9949 18.7151 14.9881 18.7104C14.9813 18.7057 14.9735 18.7028 14.9654 18.7018C14.9572 18.7014 14.949 18.7029 14.9415 18.7063C14.934 18.7097 14.9274 18.7148 14.9222 18.7212L14.7672 18.9287L14.636 18.5724C14.6424 18.5718 14.6487 18.5698 14.6544 18.5667C14.6601 18.5636 14.6651 18.5594 14.6691 18.5543L14.8747 18.2549L15.0054 18.5768C15.0084 18.585 15.0137 18.5922 15.0207 18.5975C15.0277 18.6028 15.036 18.6061 15.0447 18.6068C15.0533 18.6075 15.0619 18.6061 15.0698 18.6026C15.0777 18.5991 15.0845 18.5937 15.0897 18.5868L15.2972 18.2906L15.4279 18.6924L15.3522 19.0087C15.291 19.0087 15.2185 19.0062 15.1416 18.9999L15.1397 19.0012ZM15.4916 18.8418L15.541 18.9393L15.7285 18.7887L15.9054 17.7443L15.8529 18.8506L15.9935 19.0174L16.1754 18.8506L16.1179 17.6768L16.296 18.8124L16.4879 18.9537C16.3997 18.9428 16.3103 18.9617 16.2341 19.0074C16.2125 19.0226 16.1943 19.0422 16.181 19.0649C16.148 19.0687 16.1161 19.0792 16.0874 19.0959C16.0587 19.1126 16.0337 19.135 16.0141 19.1618C15.987 19.1305 15.9535 19.1053 15.9159 19.0878C15.8783 19.0703 15.8374 19.0611 15.796 19.0606C15.7704 19.0043 15.6897 18.9768 15.4554 18.9981L15.4916 18.8418ZM16.536 18.8818L16.556 18.9637C16.5347 18.9637 16.5129 18.9581 16.4935 18.9568L16.536 18.8818ZM17.7429 18.8049L17.6635 18.8224L17.4679 18.5624C17.4599 18.5527 17.4485 18.5464 17.436 18.5449L17.5985 18.0506L17.816 18.7918L17.7429 18.8049ZM17.1135 16.0549C17.2478 15.7427 17.3464 15.4163 17.4072 15.0818L17.4697 17.2662L17.1135 16.0549ZM16.0054 14.0437C16.1204 14.1387 16.5522 14.4431 17.3866 14.4649C17.371 14.7774 17.2291 16.5218 16.0116 17.2149C15.8335 17.0981 14.6785 16.2731 14.6579 14.4499C15.1411 14.4741 15.6179 14.3304 16.0072 14.0431L16.0054 14.0437ZM14.5929 14.9187C14.6383 15.3067 14.746 15.6849 14.9116 16.0387C14.9104 16.0402 14.9093 16.0419 14.9085 16.0437L14.6404 16.9574L14.5241 17.3518L14.5929 14.9187ZM14.421 18.0481L14.5835 18.5424C14.5773 18.543 14.5712 18.5449 14.5657 18.5479C14.5602 18.5509 14.5554 18.555 14.5516 18.5599L14.3197 18.8668C14.2729 18.8556 14.2291 18.8449 14.1891 18.8343L14.421 18.0481ZM18.741 19.5956C18.7358 19.6007 18.7318 19.607 18.7293 19.6139C18.7268 19.6209 18.7259 19.6283 18.7266 19.6356C18.7266 19.6431 18.7447 19.8231 18.6104 19.8518C18.6031 19.8534 18.5962 19.8567 18.5904 19.8614C18.5846 19.8661 18.58 19.8721 18.577 19.8789C18.5739 19.8857 18.5725 19.8932 18.5729 19.9006C18.5733 19.9081 18.5754 19.9153 18.5791 19.9218C18.5893 19.9433 18.5946 19.9668 18.5946 19.9906C18.5946 20.0144 18.5893 20.0378 18.5791 20.0593C18.546 20.1218 18.446 20.2043 18.1566 20.2362C18.0504 20.2474 17.9397 20.2606 17.8247 20.2737C17.2366 20.3431 16.5697 20.4212 15.8872 20.3868C15.0122 20.3437 13.7804 20.2274 13.686 20.1799C13.6595 20.166 13.6316 20.1547 13.6029 20.1462C13.5029 20.1118 13.431 20.0868 13.4779 19.9268C13.4805 19.921 13.4818 19.9147 13.4818 19.9084C13.4818 19.902 13.4805 19.8957 13.4779 19.8899C13.475 19.8842 13.4709 19.8792 13.466 19.8751C13.461 19.871 13.4553 19.868 13.4491 19.8662C13.3964 19.8508 13.3509 19.8172 13.3206 19.7715C13.2903 19.7257 13.2771 19.6707 13.2835 19.6162C13.2847 19.6071 13.2833 19.5979 13.2794 19.5896C13.2755 19.5813 13.2693 19.5742 13.2616 19.5693L13.2922 19.5593C13.3014 19.5562 13.3094 19.5504 13.3153 19.5427C13.3212 19.5351 13.3247 19.5258 13.3254 19.5162C13.3265 19.466 13.3473 19.4182 13.3833 19.3831C13.4193 19.3481 13.4676 19.3285 13.5179 19.3287C13.5251 19.3287 13.5322 19.327 13.5387 19.3239C13.5452 19.3208 13.5509 19.3162 13.5554 19.3106C13.5599 19.3048 13.5631 19.2981 13.5647 19.291C13.5663 19.2839 13.5663 19.2765 13.5647 19.2693C13.5647 19.2693 13.5172 19.0681 13.5979 18.9637C13.6157 18.9423 13.6384 18.9255 13.6641 18.9147C13.6897 18.9038 13.7176 18.8992 13.7454 18.9012C13.7552 18.9009 13.7647 18.8977 13.7727 18.892C13.7807 18.8864 13.7868 18.8785 13.7904 18.8693C13.794 18.86 13.7994 18.8514 13.8064 18.8442C13.8134 18.837 13.8217 18.8313 13.831 18.8274C13.8476 18.8242 13.8647 18.8243 13.8812 18.8279C13.8978 18.8314 13.9134 18.8383 13.9272 18.8481C13.9737 18.8705 14.022 18.8889 14.0716 18.9031L14.0685 18.9131C14.0666 18.9197 14.0661 18.9266 14.0671 18.9334C14.0681 18.9401 14.0705 18.9466 14.0741 18.9524C14.0776 18.9584 14.0824 18.9634 14.0882 18.9672C14.0939 18.971 14.1004 18.9734 14.1072 18.9743L14.7497 19.0749L15.3691 19.1756H15.3747C15.3856 19.1756 15.3961 19.172 15.4046 19.1653C15.4131 19.1586 15.4191 19.1492 15.4216 19.1387L15.4316 19.0981H15.4435C15.6754 19.0737 15.7091 19.1031 15.7097 19.1062C15.7121 19.121 15.7198 19.1344 15.7312 19.1441C15.7427 19.1537 15.7573 19.1589 15.7722 19.1587C15.8161 19.1541 15.8602 19.1647 15.8971 19.1888C15.934 19.213 15.9614 19.2492 15.9747 19.2912C15.978 19.3019 15.985 19.311 15.9943 19.3171C16.0037 19.3231 16.0149 19.3257 16.026 19.3243C16.0372 19.3231 16.0476 19.3179 16.0555 19.3099C16.0634 19.3018 16.0682 19.2912 16.0691 19.2799C16.0691 19.2687 16.0816 19.1674 16.2185 19.1587C16.2288 19.1574 16.2385 19.153 16.2463 19.1461C16.2541 19.1392 16.2597 19.1301 16.2622 19.1199C16.2622 19.1199 16.2941 19.0168 16.5816 19.0618L16.6004 19.1393C16.6029 19.1498 16.6089 19.1592 16.6174 19.1659C16.6259 19.1726 16.6364 19.1762 16.6472 19.1762H16.6547L17.2741 19.0756L17.9141 18.9712C17.9209 18.9703 17.9274 18.9678 17.9332 18.9641C17.9389 18.9603 17.9437 18.9552 17.9472 18.9493C17.951 18.9436 17.9535 18.9371 17.9545 18.9303C17.9555 18.9235 17.9549 18.9165 17.9529 18.9099L17.9385 18.8606C18.0067 18.8446 18.0758 18.8323 18.1454 18.8237C18.2011 18.827 18.2556 18.8417 18.3055 18.8669C18.3553 18.892 18.3995 18.9271 18.4354 18.9699C18.4543 18.9986 18.4658 19.0314 18.4688 19.0656C18.4719 19.0997 18.4664 19.1341 18.4529 19.1656C18.4523 19.1708 18.4523 19.176 18.4529 19.1812V19.3062C18.4529 19.3126 18.4542 19.319 18.4568 19.3249C18.4594 19.3308 18.4632 19.3362 18.4679 19.3406C18.4774 19.3494 18.4899 19.3543 18.5029 19.3543C18.5097 19.3543 18.6441 19.3543 18.7354 19.5281C18.7395 19.536 18.7457 19.5426 18.7533 19.5472C18.7609 19.5518 18.7696 19.5543 18.7785 19.5543H18.7872L18.741 19.5956Z" fill="#F28623"/>
<path id="Vector_11" opacity="0.12" d="M24.7715 4.89816C22.1206 2.8121 18.8157 1.73381 15.4446 1.85504C7.71526 2.11504 1.53526 8.59191 1.61901 16.325C1.6328 17.7145 1.84947 19.0945 2.26213 20.4213C2.34607 20.6945 2.5174 20.9325 2.74979 21.0988C2.98217 21.2651 3.26274 21.3505 3.54838 21.3419C19.2434 20.8069 24.0484 9.83379 25.194 6.29879C25.2748 6.0501 25.2777 5.78264 25.2022 5.53229C25.1267 5.28193 24.9764 5.06066 24.7715 4.89816Z" fill="white"/>
</g>
</g>
</g>
</g>
<defs>
<filter id="filter0_f_0_1" x="-373" y="28" width="942" height="942" filterUnits="userSpaceOnUse" color-interpolation-filters="sRGB">
<feFlood flood-opacity="0" result="BackgroundImageFix"/>
<feBlend mode="normal" in="SourceGraphic" in2="BackgroundImageFix" result="shape"/>
<feGaussianBlur stdDeviation="123" result="effect1_foregroundBlur_0_1"/>
</filter>
<clipPath id="clip0_0_1">
<rect width="1440" height="9179" fill="white" transform="translate(-282 -44)"/>
</clipPath>
<clipPath id="clip1_0_1">
<rect width="32" height="32" fill="white"/>
</clipPath>
</defs>
</svg>
