<svg width="25" height="25" viewBox="0 0 25 25" fill="none" xmlns="http://www.w3.org/2000/svg">
<g id="teenyicons:twitter-outline" clip-path="url(#clip0_23_464)">
<path id="Vector" d="M23.6882 3.272L24.4882 3.2192C24.4779 3.06215 24.4214 2.91164 24.3259 2.78653C24.2303 2.66143 24.1001 2.56727 23.9513 2.51586C23.8025 2.46445 23.6419 2.45807 23.4895 2.49751C23.3371 2.53695 23.1998 2.62047 23.0946 2.7376L23.6882 3.272ZM22.8914 8.0064C22.8914 7.79423 22.8072 7.59075 22.6571 7.44072C22.5071 7.29069 22.3036 7.2064 22.0914 7.2064C21.8793 7.2064 21.6758 7.29069 21.5258 7.44072C21.3757 7.59075 21.2914 7.79423 21.2914 8.0064H22.8914ZM1.32344 20.872V20.072C1.15166 20.0718 0.984381 20.1269 0.846339 20.2291C0.708296 20.3313 0.606826 20.4753 0.55694 20.6397C0.507053 20.804 0.5114 20.9801 0.569337 21.1418C0.627273 21.3035 0.735722 21.4423 0.878641 21.5376L1.32344 20.872ZM2.92024 3.272L3.67064 2.992C3.61611 2.84593 3.52008 2.71898 3.39437 2.62676C3.26866 2.53454 3.11873 2.48106 2.96303 2.4729C2.80733 2.46474 2.65264 2.50226 2.51797 2.58084C2.38331 2.65942 2.27454 2.77563 2.20504 2.9152L2.92024 3.272ZM9.31064 17.672L9.87704 18.2368C9.97314 18.1404 10.043 18.0211 10.0802 17.8901C10.1173 17.7592 10.1203 17.6209 10.0891 17.4884C10.0579 17.3559 9.99335 17.2336 9.90164 17.133C9.80993 17.0324 9.69408 16.9569 9.56504 16.9136L9.31064 17.672ZM20.869 4.8288L20.277 5.3664L20.565 5.6848L20.989 5.6208L20.869 4.8288ZM22.8914 3.3248C22.973 4.5696 22.8962 5.3248 22.6946 5.8944C22.4994 6.4464 22.157 6.9008 21.5378 7.4944L22.645 8.6496C23.3458 7.9776 23.8866 7.3184 24.2034 6.4288C24.5122 5.5552 24.5762 4.544 24.4882 3.2192L22.8914 3.3248ZM22.8914 9.1712V8.0064H21.2914V9.1728H22.8914V9.1712ZM11.7074 8.1376V9.672H13.3074V8.1376H11.7074ZM11.7074 9.672V10.472H13.3074V9.672H11.7074ZM17.3634 2.472C16.6198 2.47242 15.8836 2.6193 15.1968 2.90425C14.5099 3.1892 13.886 3.60664 13.3605 4.13274C12.835 4.65884 12.4182 5.2833 12.134 5.97045C11.8499 6.65761 11.7038 7.394 11.7042 8.1376H13.3042C13.3038 7.60398 13.4085 7.07551 13.6124 6.58238C13.8163 6.08924 14.1153 5.64109 14.4924 5.26355C14.8695 4.886 15.3173 4.58645 15.8102 4.382C16.3031 4.17755 16.8314 4.07221 17.365 4.072V2.472H17.3634ZM21.2898 9.1712C21.2914 16.0768 15.7026 21.672 8.81144 21.672V23.272C16.5874 23.272 22.8914 16.9584 22.8914 9.1712H21.2898ZM2.17144 3.552C3.04184 5.8752 6.30584 10.472 12.5074 10.472V8.872C7.20184 8.872 4.39704 4.936 3.66904 2.992L2.17144 3.552ZM2.20504 2.9152C0.529841 6.2688 0.272241 9.5232 1.48984 12.2944C2.70424 15.0576 5.31704 17.1824 9.05784 18.4304L9.56504 16.9136C6.11704 15.7616 3.93624 13.8864 2.95384 11.6496C1.97464 9.4208 2.11704 6.6736 3.63704 3.6288L2.20504 2.9152ZM8.74424 17.1072C7.78104 18.072 4.88504 20.072 1.32344 20.072V21.672C5.42904 21.672 8.71064 19.4064 9.87704 18.2368L8.74424 17.1072ZM21.4626 4.2928C20.9454 3.71913 20.3133 3.26058 19.6074 2.94691C18.9015 2.63323 18.1375 2.47143 17.365 2.472V4.072C18.5186 4.072 19.557 4.5696 20.277 5.3664L21.4626 4.2928ZM20.989 5.6208C22.2635 5.41258 23.4274 4.77187 24.285 3.8064L23.0946 2.7376C22.4846 3.42678 21.6567 3.88592 20.749 4.0384L20.989 5.6208ZM0.878641 21.5376C3.50424 23.288 6.25624 23.272 8.81144 23.272V21.672C6.20344 21.672 3.93464 21.6544 1.76824 20.2064L0.878641 21.5376Z" fill="white"/>
</g>
<defs>
<clipPath id="clip0_23_464">
<rect width="24" height="24" fill="white" transform="translate(0.523438 0.872009)"/>
</clipPath>
</defs>
</svg>
