<svg width="25" height="25" viewBox="0 0 25 25" fill="none" xmlns="http://www.w3.org/2000/svg">
<g id="mingcute:youtube-line">
<g id="Group">
<path id="Vector" d="M12.5234 4.87201C13.3784 4.87201 14.2554 4.89401 15.1054 4.93001L16.1094 4.97801L17.0704 5.03501L17.9704 5.09601L18.7924 5.16001C19.6845 5.22829 20.5239 5.60896 21.163 6.23505C21.802 6.86114 22.1999 7.69255 22.2864 8.58301L22.3264 9.00801L22.4014 9.91801C22.4714 10.861 22.5234 11.889 22.5234 12.872C22.5234 13.855 22.4714 14.883 22.4014 15.826L22.3264 16.736C22.3134 16.882 22.3004 17.023 22.2864 17.161C22.1998 18.0516 21.8019 18.8832 21.1626 19.5093C20.5233 20.1354 19.6837 20.516 18.7914 20.584L17.9714 20.647L17.0714 20.709L16.1094 20.766L15.1054 20.814C14.2453 20.8514 13.3844 20.8707 12.5234 20.872C11.6625 20.8707 10.8016 20.8514 9.94144 20.814L8.93744 20.766L7.97644 20.709L7.07644 20.647L6.25444 20.584C5.36239 20.5157 4.52299 20.1351 3.88391 19.509C3.24483 18.8829 2.84701 18.0515 2.76044 17.161L2.72044 16.736L2.64544 15.826C2.56898 14.8431 2.52828 13.8578 2.52344 12.872C2.52344 11.889 2.57544 10.861 2.64544 9.91801L2.72044 9.00801C2.73344 8.86201 2.74644 8.72101 2.76044 8.58301C2.84698 7.69271 3.24465 6.86142 3.88353 6.23535C4.5224 5.60928 5.36157 5.22851 6.25344 5.16001L7.07444 5.09601L7.97444 5.03501L8.93644 4.97801L9.94044 4.93001C10.8009 4.89264 11.6621 4.8733 12.5234 4.87201ZM12.5234 6.87201C11.6984 6.87201 10.8494 6.89401 10.0234 6.92801L9.04544 6.97501L8.10644 7.03001L7.22444 7.09001L6.41644 7.15301C5.99177 7.18314 5.59148 7.36266 5.28653 7.65974C4.98158 7.95682 4.79166 8.35227 4.75044 8.77601C4.63344 9.98501 4.52344 11.49 4.52344 12.872C4.52344 14.254 4.63344 15.759 4.75044 16.968C4.83544 17.84 5.52744 18.518 6.41644 18.591L7.22444 18.653L8.10644 18.713L9.04544 18.769L10.0234 18.816C10.8494 18.85 11.6984 18.872 12.5234 18.872C13.3484 18.872 14.1974 18.85 15.0234 18.816L16.0014 18.769L16.9404 18.714L17.8224 18.654L18.6304 18.591C19.0551 18.5609 19.4554 18.3814 19.7603 18.0843C20.0653 17.7872 20.2552 17.3917 20.2964 16.968C20.4134 15.759 20.5234 14.254 20.5234 12.872C20.5234 11.49 20.4134 9.98501 20.2964 8.77601C20.2552 8.35227 20.0653 7.95682 19.7603 7.65974C19.4554 7.36266 19.0551 7.18314 18.6304 7.15301L17.8224 7.09101L16.9404 7.03101L16.0014 6.97501L15.0234 6.92801C14.1906 6.89218 13.3571 6.8735 12.5234 6.87201ZM10.5234 10.447C10.5234 10.3493 10.5472 10.253 10.5928 10.1666C10.6384 10.0801 10.7045 10.0061 10.7852 9.95104C10.8659 9.89595 10.9589 9.8614 11.056 9.85042C11.1531 9.83943 11.2514 9.85234 11.3424 9.88801L11.4234 9.92801L15.6234 12.352C15.7071 12.4003 15.7778 12.468 15.8297 12.5494C15.8815 12.6309 15.913 12.7237 15.9213 12.8199C15.9297 12.9161 15.9147 13.0128 15.8776 13.102C15.8406 13.1912 15.7825 13.2701 15.7084 13.332L15.6234 13.392L11.4234 15.817C11.3388 15.866 11.2435 15.8936 11.1457 15.8973C11.048 15.9011 10.9508 15.8809 10.8627 15.8385C10.7746 15.7961 10.6981 15.7328 10.64 15.6541C10.5819 15.5754 10.544 15.4837 10.5294 15.387L10.5234 15.297V10.447Z" fill="white"/>
</g>
</g>
</svg>
